<?xml version="1.0" encoding="UTF-8" standalone="no"?>
<!-- Created with Inkscape (http://www.inkscape.org/) -->

<svg
   xmlns:dc="http://purl.org/dc/elements/1.1/"
   xmlns:cc="http://creativecommons.org/ns#"
   xmlns:rdf="http://www.w3.org/1999/02/22-rdf-syntax-ns#"
   xmlns:svg="http://www.w3.org/2000/svg"
   xmlns="http://www.w3.org/2000/svg"
   xmlns:sodipodi="http://sodipodi.sourceforge.net/DTD/sodipodi-0.dtd"
   xmlns:inkscape="http://www.inkscape.org/namespaces/inkscape"
   width="341.76794"
   height="124.63608"
   id="svg2"
   version="1.1"
   inkscape:version="0.48.3.1 r9886"
   sodipodi:docname="cog.svg">
  <defs
     id="defs4" />
  <sodipodi:namedview
     id="base"
     pagecolor="#ffffff"
     bordercolor="#666666"
     borderopacity="1.0"
     inkscape:pageopacity="0.0"
     inkscape:pageshadow="2"
     inkscape:zoom="1.4"
     inkscape:cx="86.056787"
     inkscape:cy="29.214175"
     inkscape:document-units="px"
     inkscape:current-layer="layer1"
     showgrid="false"
     showguides="true"
     inkscape:guide-bbox="true"
     inkscape:snap-global="true"
     inkscape:window-width="1440"
     inkscape:window-height="850"
     inkscape:window-x="0"
     inkscape:window-y="0"
     inkscape:window-maximized="1"
     fit-margin-top="0"
     fit-margin-left="0"
     fit-margin-right="0"
     fit-margin-bottom="0" />
  <metadata
     id="metadata7">
    <rdf:RDF>
      <cc:Work
         rdf:about="">
        <dc:format>image/svg+xml</dc:format>
        <dc:type
           rdf:resource="http://purl.org/dc/dcmitype/StillImage" />
        <dc:title></dc:title>
      </cc:Work>
    </rdf:RDF>
  </metadata>
  <g
     inkscape:label="Layer 1"
     inkscape:groupmode="layer"
     id="layer1"
     transform="translate(-105.78125,-321.87075)">
    <g
       id="g3103">
      <g
         id="g3087">
        <g
           id="g3050"
           transform="translate(0,-4.406)">
          <path
             d="m 265.51575,421.43083 c 0.672,0 1.32533,0.0747 1.96,0.224 0.672,0.112 1.25066,0.41067 1.736,0.896 0.29866,0 0.57866,0.0747 0.84,0.224 0.26133,0.14934 0.50399,0.336 0.728,0.56 0.26133,0.18667 0.50399,0.392 0.728,0.616 0.26133,0.224 0.52266,0.392 0.784,0.504 0.0373,0.0373 0.14933,0.112 0.336,0.224 0.18666,0.112 0.37333,0.24267 0.56,0.392 0.18666,0.112 0.37332,0.224 0.56,0.336 0.18666,0.112 0.29866,0.18667 0.336,0.224 l 0.168,0.168 c 0.18666,0.18667 0.33599,0.42933 0.448,0.728 0.14932,0.29867 0.33599,0.448 0.56,0.448 l 0.168,-0.168 c 0.18666,-0.336 0.29866,-0.65333 0.336,-0.952 0.0747,-0.336 0.20532,-0.59733 0.392,-0.784 l 2.352,-2.352 c 1.26932,-1.26933 2.44532,-2.35199 3.528,-3.248 1.08265,-0.93333 1.79198,-1.92266 2.128,-2.968 0.0373,-0.0747 0.0747,-0.16799 0.112,-0.28 0.0373,-0.14932 0.0746,-0.26132 0.112,-0.336 l 0,-5.096 c -2e-5,-0.0747 -0.0187,-0.24265 -0.056,-0.504 -2e-5,-0.26132 -0.0187,-0.54132 -0.056,-0.84 -0.0374,-0.33598 -0.0747,-0.61598 -0.112,-0.84 -2e-5,-0.26132 -2e-5,-0.42932 0,-0.504 l 0,-9.912 c -2e-5,-1.19464 -0.0933,-2.2213 -0.28,-3.08 -0.18669,-0.85863 -0.59735,-1.6053 -1.232,-2.24 l -1.96,-1.904 c -0.18668,-0.22396 -0.46668,-0.44796 -0.84,-0.672 -0.37335,-0.22396 -0.76535,-0.5413 -1.176,-0.952 l -0.56,-0.56 c -10e-6,4e-5 -0.056,-0.11196 -0.168,-0.336 -0.11201,-0.22396 -0.16801,-0.3733 -0.168,-0.448 l -0.504,-0.392 -0.112,0 c -0.52268,1.23204 -1.15734,2.24004 -1.904,3.024 -0.70934,0.78403 -1.43734,1.4747 -2.184,2.072 -0.74667,0.56003 -1.47467,1.0827 -2.184,1.568 -0.67201,0.48536 -1.232,1.06403 -1.68,1.736 -0.37334,0.33603 -0.63467,0.76536 -0.784,1.288 -0.112,0.48536 -0.20534,0.97069 -0.28,1.456 -0.0747,0.48536 -0.14934,0.95203 -0.224,1.4 -0.0373,0.41069 -0.14934,0.70936 -0.336,0.896 l 0,9.24 c 0.0747,2e-5 0.13066,0.0933 0.168,0.28 0.0747,0.18668 0.13066,0.42935 0.168,0.728 0.0373,0.26135 0.056,0.56001 0.056,0.896 0.0373,0.29868 0.056,0.56001 0.056,0.784 l 0,3.696 c 0,0.74668 -0.0747,1.30668 -0.224,1.68 -0.14934,0.37334 -0.31734,0.65334 -0.504,0.84 -0.18667,0.18667 -0.35467,0.33601 -0.504,0.448 -0.112,0.0747 -0.14934,0.16801 -0.112,0.28 -0.18667,0.18667 -0.35467,0.33601 -0.504,0.448 -0.14933,0.0747 -0.28,0.14934 -0.392,0.224 -0.0747,0.0747 -0.14933,0.16801 -0.224,0.28 -0.0373,0.11201 -0.056,0.29867 -0.056,0.56 m 8.736,-3.416 c -0.0747,-1.23199 -0.13068,-2.46399 -0.168,-3.696 -1e-5,-1.26932 -0.0933,-2.50132 -0.28,-3.696 l 0,-16.744 c -10e-6,-0.0373 0.0933,-0.11197 0.28,-0.224 l 0.336,0 c 0.11199,0.11203 0.27999,0.28003 0.504,0.504 0.26132,0.1867 0.52266,0.37337 0.784,0.56 0.26132,0.1867 0.48532,0.3547 0.672,0.504 0.22399,0.11203 0.35465,0.16803 0.392,0.168 l 0.224,0.28 c -10e-6,0.11203 0.056,0.26136 0.168,0.448 0.14932,0.14936 0.29865,0.33603 0.448,0.56 0.18665,0.22403 0.35465,0.44803 0.504,0.672 0.14932,0.22403 0.22399,0.4107 0.224,0.56 l 0.168,13.104 -0.168,10.36 c -0.33601,-0.33599 -0.74668,-0.69066 -1.232,-1.064 -0.44801,-0.37333 -0.89601,-0.72799 -1.344,-1.064 -0.41068,-0.33599 -0.76534,-0.61599 -1.064,-0.84 -0.29868,-0.22399 -0.44801,-0.35466 -0.448,-0.392"
             style="font-size:56px;font-style:normal;font-weight:normal;line-height:125%;letter-spacing:0px;word-spacing:0px;fill:#000000;fill-opacity:1;stroke:none;font-family:Sans"
             id="path3014"
             inkscape:connector-curvature="0" />
          <path
             d="m 291.2915,430.83883 1.008,5.04 c -1e-5,0.0747 0.0187,0.14932 0.056,0.224 0.0373,0.0747 0.0747,0.14932 0.112,0.224 l 0.168,0 c 0.11199,-10e-6 0.22399,-0.29868 0.336,-0.896 0.11199,-0.59734 0.22399,-1.25067 0.336,-1.96 0.11199,-0.67201 0.18666,-1.26934 0.224,-1.792 0.0747,-0.48534 0.11199,-0.65334 0.112,-0.504 -1e-5,-0.0747 0.0187,-0.20534 0.056,-0.392 0.0747,-0.18667 0.11199,-0.29867 0.112,-0.336 l 0.168,-0.168 c 0.29866,-0.56 0.50399,-1.232 0.616,-2.016 0.14932,-0.74667 0.22399,-1.25067 0.224,-1.512 0.0373,-0.14933 0.0933,-0.41067 0.168,-0.784 0.0747,-0.37333 0.14932,-0.76533 0.224,-1.176 0.0747,-0.448 0.14932,-0.85866 0.224,-1.232 0.0747,-0.37333 0.13066,-0.63466 0.168,-0.784 l 0,-12.096 c -10e-6,-0.0747 -0.0187,-0.26132 -0.056,-0.56 -1e-5,-0.33598 -0.0187,-0.67198 -0.056,-1.008 -10e-6,-0.37332 -0.0187,-0.69065 -0.056,-0.952 -10e-6,-0.29865 -10e-6,-0.48531 0,-0.56 l 0,-11.2 c -10e-6,-0.0746 0.056,-0.13064 0.168,-0.168 0.11199,-0.0373 0.18666,-0.056 0.224,-0.056 0.52266,3e-5 0.93332,0.16803 1.232,0.504 0.33599,0.33603 0.63465,0.50403 0.896,0.504 l 0.168,0 c -10e-6,-1.1573 0.0933,-2.31464 0.28,-3.472 0.22399,-1.1573 0.59732,-2.2773 1.12,-3.36 -1e-5,-0.11196 0.056,-0.24263 0.168,-0.392 0.11199,-0.1493 0.14932,-0.29863 0.112,-0.448 l -0.672,0 c -0.29868,0.1867 -0.70935,0.33604 -1.232,0.448 -0.48535,0.0747 -1.00801,0.20537 -1.568,0.392 l -0.896,0 c -0.14934,4e-5 -0.28001,-0.1493 -0.392,-0.448 -0.0747,-0.29863 -0.14934,-0.5413 -0.224,-0.728 l -1.568,-1.568 c -1e-5,4e-5 -0.0933,-0.056 -0.28,-0.168 -0.14934,-0.14929 -0.33601,-0.29863 -0.56,-0.448 -0.22401,-0.18663 -0.44801,-0.35463 -0.672,-0.504 -0.22401,-0.14929 -0.37334,-0.22396 -0.448,-0.224 l -0.392,-0.448 c -0.14934,-0.11196 -0.29867,-0.29863 -0.448,-0.56 -0.11201,-0.29863 -0.16801,-0.55996 -0.168,-0.784 l 0,-0.56 c -1e-5,-0.48529 0.18666,-0.93329 0.56,-1.344 0.41066,-0.41062 0.82133,-0.61596 1.232,-0.616 l 0.056,0 c 0.70933,4e-5 1.28799,0.0934 1.736,0.28 0.44799,0.18671 0.78399,0.39204 1.008,0.616 0.22399,0.22404 0.37332,0.42938 0.448,0.616 0.0747,0.14938 0.11199,0.20538 0.112,0.168 0.44799,0.89604 0.76532,1.60537 0.952,2.128 0.22399,0.48537 0.41066,0.98937 0.56,1.512 -10e-6,4e-5 0.0933,-0.14929 0.28,-0.448 0.22399,-0.33596 0.44799,-0.69063 0.672,-1.064 0.26132,-0.41063 0.48532,-0.78396 0.672,-1.12 0.22399,-0.33596 0.35465,-0.52262 0.392,-0.56 0.33599,-0.33596 0.76532,-0.67196 1.288,-1.008 0.52265,-0.33596 0.87732,-0.59729 1.064,-0.784 l 0,-0.728 c -2e-5,-0.11196 -0.11202,-0.29862 -0.336,-0.56 -0.18668,-0.29862 -0.41068,-0.57862 -0.672,-0.84 -0.26135,-0.29862 -0.52268,-0.55995 -0.784,-0.784 -0.22401,-0.22395 -0.35468,-0.33595 -0.392,-0.336 -0.26135,-0.26129 -0.67201,-0.46662 -1.232,-0.616 -0.56001,-0.14929 -0.98935,-0.22395 -1.288,-0.224 l -1.624,0 c -0.37334,5e-5 -0.84001,0.13071 -1.4,0.392 -0.52267,0.22405 -0.95201,0.48538 -1.288,0.784 l -1.568,1.568 c -0.0747,0.0747 -0.14934,0.18671 -0.224,0.336 -0.0747,0.11204 -0.14934,0.20538 -0.224,0.28 l -0.56,1.176 c 0,0.29871 -0.112,0.65338 -0.336,1.064 -0.18667,0.37338 -0.28,0.70938 -0.28,1.008 0,0.22404 -0.0187,0.59737 -0.056,1.12 0,0.52271 -0.0187,1.08271 -0.056,1.68 0,0.56004 -0.0187,1.10137 -0.056,1.624 0,0.5227 0,0.89604 0,1.12 -0.18667,0.4107 -0.448,0.87737 -0.784,1.4 -0.336,0.5227 -0.672,1.06403 -1.008,1.624 -0.336,0.56003 -0.63467,1.10137 -0.896,1.624 -0.224,0.48536 -0.336,0.89603 -0.336,1.232 l 3.024,0 0.168,9.576 c 0.0747,3.92002 0.18666,7.16801 0.336,9.744 0.14933,2.57601 0.31733,4.74134 0.504,6.496 0.224,1.75467 0.44799,3.22933 0.672,4.424 0.22399,1.19467 0.44799,2.37066 0.672,3.528 l 0,0.84"
             style="font-size:56px;font-style:normal;font-weight:normal;line-height:125%;letter-spacing:0px;word-spacing:0px;fill:#000000;fill-opacity:1;stroke:none;font-family:Sans"
             id="path3016"
             inkscape:connector-curvature="0" />
        </g>
        <g
           id="g3069"
           transform="translate(10,0)">
          <path
             d="m 95.78125,407.50683 c -10e-7,1.2667 -10e-7,2.6667 0,4.2 0.06667,1.53337 0.166665,3.0667 0.3,4.6 0.199998,1.4667 0.433331,2.90003 0.7,4.3 0.266664,1.33336 0.63333,2.43336 1.1,3.3 0.733329,2.93335 1.599995,5.20002 2.6,6.8 0.99999,1.60001 1.63333,2.66668 1.9,3.2 0.53332,1.13334 1.29999,2.23334 2.3,3.3 1.06666,1.06667 2.13332,2.06667 3.2,3 1.13332,0.86667 2.16665,1.6 3.1,2.2 0.93332,0.53334 1.56665,0.86667 1.9,1 2.39998,1.26667 4.69998,2.1 6.9,2.5 2.26664,0.4 4.96664,0.6 8.1,0.6 1.39996,0 2.86663,-0.26667 4.4,-0.8 1.59996,-0.53333 3.19996,-1.3 4.8,-2.3 1.59996,-1 3.13329,-2.19999 4.6,-3.6 1.53328,-1.46666 2.86662,-3.06666 4,-4.8 0.73328,-0.73332 1.39995,-1.66665 2,-2.8 0.59995,-1.19998 1.09995,-2.39998 1.5,-3.6 0.39994,-1.19998 0.69994,-2.29998 0.9,-3.3 0.26661,-0.99998 0.39994,-1.73331 0.4,-2.2 0.13328,-0.13331 0.19994,-0.46664 0.2,-1 0.0666,-0.59998 0.16661,-0.96664 0.3,-1.1 l 0,-1.3 -1.1,0 -1,3.1 c -0.66672,1.73336 -1.66672,3.40002 -3,5 -1.33338,1.60002 -2.86672,3.00002 -4.6,4.2 -1.73338,1.20001 -3.60004,2.16668 -5.6,2.9 -1.93337,0.73334 -3.83337,1.10001 -5.7,1.1 -2.53337,-0.39999 -4.60003,-0.83332 -6.2,-1.3 -1.60003,-0.53332 -2.90003,-1.03332 -3.9,-1.5 -1.00002,-0.53332 -1.76669,-1.03332 -2.3,-1.5 -0.53336,-0.46665 -0.96669,-0.86665 -1.3,-1.2 l -2.1,-2.1 c -0.26669,-0.39998 -0.63335,-0.96665 -1.1,-1.7 -0.46668,-0.79998 -0.93335,-1.53331 -1.4,-2.2 -0.46668,-0.73331 -0.86668,-1.36664 -1.2,-1.9 -0.33335,-0.53331 -0.50002,-0.79998 -0.5,-0.8 l 0,-1.1 c 0.93332,0.93336 1.69998,1.70002 2.3,2.3 0.66665,0.53336 1.23331,0.96669 1.7,1.3 0.46665,0.33336 0.93331,0.60002 1.4,0.8 0.46665,0.13335 1.03331,0.26669 1.7,0.4 0.0666,0.13335 0.23331,0.23335 0.5,0.3 0.26664,2e-5 0.43331,0.0667 0.5,0.2 l 6.6,0 c 0.39997,2e-5 0.86664,-0.13331 1.4,-0.4 0.5333,-0.26665 1.0333,-0.39998 1.5,-0.4 l 0.3,0 c 1.5333,-0.66664 2.96663,-1.43331 4.3,-2.3 1.39996,-0.93331 2.39996,-2.26664 3,-4 1.06662,-1.86664 1.86662,-3.39997 2.4,-4.6 0.53329,-1.26663 0.86662,-2.29997 1,-3.1 0.13329,-0.79996 0.16662,-1.39996 0.1,-1.8 -4e-5,-0.46663 -4e-5,-0.79996 0,-1 l 0,-1.3 c -4e-5,4e-5 -0.0667,-0.1 -0.2,-0.3 -0.0667,-0.19996 -0.10004,-0.36663 -0.1,-0.5 l 0,-2.4 c -4e-5,-1.06662 -0.16671,-2.09996 -0.5,-3.1 -0.33338,-0.99995 -0.73338,-1.93329 -1.2,-2.8 -0.40004,-0.93328 -0.86671,-1.76662 -1.4,-2.5 -0.46671,-0.79995 -0.83337,-1.49995 -1.1,-2.1 l -0.3,-0.3 c -1.80004,-1.79994 -3.33337,-3.53328 -4.6,-5.2 -1.2667,-1.73327 -2.53337,-3.23327 -3.8,-4.5 l -0.8,-0.8 c -0.60003,-1.19994 -1.1667,-2.2666 -1.7,-3.2 -0.46669,-0.99993 -0.93336,-2.23326 -1.4,-3.7 l 0,-2.1 c -3e-5,-0.59993 0.1,-1.23326 0.3,-1.9 0.19997,-0.73326 0.46664,-1.39992 0.8,-2 0.39997,-0.59992 0.86664,-1.09992 1.4,-1.5 0.59997,-0.39992 1.26664,-0.59992 2,-0.6 l 0.7,0 c 0.0666,8e-5 0.16663,0.20008 0.3,0.6 0.1333,0.40008 0.29997,0.86674 0.5,1.4 0.19997,0.53341 0.36663,1.03341 0.5,1.5 0.19997,0.46674 0.36663,0.80007 0.5,1 0.7333,1.13341 1.5333,2.03341 2.4,2.7 0.86663,0.66674 1.83329,1.16674 2.9,1.5 l 0.3,0 c 0.46663,0.46674 0.96663,0.90007 1.5,1.3 0.59996,0.3334 0.89996,0.86673 0.9,1.6 l 0,1.3 c -4e-5,0.86673 -0.36671,1.50006 -1.1,1.9 -0.73337,0.3334 -1.26671,0.50006 -1.6,0.5 l -0.2,0 c -0.53337,6e-5 -0.93337,-0.13327 -1.2,-0.4 -0.20004,-0.33327 -0.40004,-0.6666 -0.6,-1 -0.13337,-0.33327 -0.30004,-0.63327 -0.5,-0.9 -0.20004,-0.33327 -0.5667,-0.49993 -1.1,-0.5 l 0,1.5 c 0.1333,0.1334 0.29996,0.40006 0.5,0.8 0.26663,0.3334 0.5333,0.66673 0.8,1 0.3333,0.3334 0.66663,0.6334 1,0.9 0.39996,0.26673 0.83329,0.40006 1.3,0.4 l 0.6,0 c 0.59996,6e-5 1.16663,0.10006 1.7,0.3 0.53329,0.13339 0.96662,0.20006 1.3,0.2 1.53329,6e-5 2.89995,-0.29994 4.1,-0.9 1.26662,-0.6666 2.33328,-1.49994 3.2,-2.5 0.86662,-0.99993 1.53328,-2.09993 2,-3.3 0.46661,-1.19993 0.69995,-2.3666 0.7,-3.5 -5e-5,-0.39993 -0.10005,-0.96659 -0.3,-1.7 -0.20005,-0.73326 -0.50005,-1.46659 -0.9,-2.2 -0.40005,-0.79992 -0.90005,-1.53326 -1.5,-2.2 -0.53338,-0.66659 -1.16672,-1.19992 -1.9,-1.6 -0.73338,-0.66659 -1.46671,-1.23325 -2.2,-1.7 -0.73338,-0.46659 -1.36671,-0.86659 -1.9,-1.2 -0.53338,-0.33325 -0.93338,-0.59992 -1.2,-0.8 -0.26671,-0.26658 -0.26671,-0.53325 0,-0.8 -4e-5,-0.0666 0.1,-0.29992 0.3,-0.7 0.19996,-0.39992 0.36662,-0.66658 0.5,-0.8 l 0.3,-0.3 c 0.0666,9e-5 0.23329,-0.0332 0.5,-0.1 0.26662,-0.13325 0.43329,-0.19991 0.5,-0.2 l 0.2,-0.1 c 0.79995,9e-5 1.56662,0.23342 2.3,0.7 0.73328,0.40008 1.49995,0.60008 2.3,0.6 -5e-5,-0.79991 -0.46672,-1.43325 -1.4,-1.9 -0.86671,-0.53325 -1.63338,-0.79991 -2.3,-0.8 l -5.6,0 c -0.0667,9e-5 -0.23337,0.0667 -0.5,0.2 -0.26671,0.0668 -0.43337,0.16675 -0.5,0.3 l -0.3,0.3 c -1.33337,0.73342 -2.33337,1.30009 -3,1.7 -0.6667,0.33342 -1.43337,0.90008 -2.3,1.7 -0.33337,0.33342 -0.60003,0.76675 -0.8,1.3 -0.13337,0.53341 -0.4667,0.80008 -1,0.8 -1.0667,0.53341 -2.2667,0.93341 -3.6,1.2 -1.33336,0.20008 -2.70003,0.56675 -4.1,1.1 -1.33336,0.53341 -2.60002,1.33341 -3.8,2.4 -1.13335,1.00008 -2.03335,2.50007 -2.7,4.5 -0.60002,0.5334 -0.96668,0.96674 -1.1,1.3 -0.0667,0.3334 -0.13335,0.6334 -0.2,0.9 -0.0667,0.26674 -0.23335,0.56674 -0.5,0.9 -0.26668,0.26673 -0.86668,0.6334 -1.8,1.1 -0.40001,7e-5 -0.86668,0.20007 -1.4,0.6 -0.53335,0.3334 -0.96668,0.66673 -1.3,1 l -1.4,1.4 c -1.46668,1.46673 -2.56667,2.76673 -3.3,3.9 -0.66667,1.06673 -1.20001,2.10006 -1.6,3.1 -0.333339,1.00006 -0.633338,1.96672 -0.9,2.9 -0.266671,0.93339 -0.666671,1.96672 -1.2,3.1 l -0.3,0.6 c -0.333336,0.33338 -0.600003,1.13338 -0.8,2.4 -0.200002,1.20005 -0.400002,2.46671 -0.6,3.8 -0.133335,1.26671 -0.233335,2.33338 -0.3,3.2 -0.06667,0.80004 -0.100001,0.93337 -0.1,0.4 l 0,2.2 m 9.4,-10.3 0,-5.1 c -1e-5,-1.33328 0.19999,-2.69994 0.6,-4.1 0.46665,-1.46661 0.99999,-2.79994 1.6,-4 0.59999,-1.19994 1.19999,-2.19994 1.8,-3 0.66665,-0.79993 1.19998,-1.19993 1.6,-1.2 -2e-5,7e-5 0.0333,7e-5 0.1,0 0.13332,7e-5 0.19998,0.0334 0.2,0.1 0.46665,1.3334 0.73332,2.56673 0.8,3.7 0.13332,1.06673 0.23332,2.10006 0.3,3.1 0.13332,0.93339 0.29998,1.80006 0.5,2.6 0.19998,0.73339 0.59998,1.40006 1.2,2 0.99998,1.93339 2.29998,3.83338 3.9,5.7 1.59997,1.86671 2.86664,3.46671 3.8,4.8 l 2.1,3.5 c 0.46664,0.46671 0.86664,1.03337 1.2,1.7 0.39997,0.60004 0.69997,1.23337 0.9,1.9 0.26663,0.6667 0.4333,1.30004 0.5,1.9 0.1333,0.53337 0.19997,0.93337 0.2,1.2 l 0,2.4 c -3e-5,0.4667 -0.13337,0.9667 -0.4,1.5 -0.20003,0.4667 -0.43336,0.93336 -0.7,1.4 -0.20003,0.4667 -0.43336,0.93336 -0.7,1.4 -0.20003,0.40003 -0.30003,0.73336 -0.3,1 l -1.3,1.3 c -0.73336,0.73336 -1.50003,1.16669 -2.3,1.3 -0.80003,0.13336 -1.70002,0.20002 -2.7,0.2 -1.33336,2e-5 -2.43335,-0.1 -3.3,-0.3 -0.80002,-0.19998 -1.56669,-0.63331 -2.3,-1.3 -0.66668,-0.66664 -1.36668,-1.66664 -2.1,-3 -0.73335,-1.3333 -1.66668,-3.09997 -2.8,-5.3 -0.0667,-0.26663 -0.23335,-0.7333 -0.5,-1.4 -0.20001,-0.7333 -0.43335,-1.46663 -0.7,-2.2 -0.20001,-0.7333 -0.40001,-1.36663 -0.6,-1.9 -0.20001,-0.53329 -0.30001,-0.79996 -0.3,-0.8 l 0,-1.3 c -1e-5,-0.13329 -0.0667,-0.59996 -0.2,-1.4 -0.0667,-0.86662 -0.10001,-1.36662 -0.1,-1.5 l 0,-4.9"
             style="font-size:100px;font-style:normal;font-weight:normal;line-height:125%;letter-spacing:0px;word-spacing:0px;fill:#000000;fill-opacity:1;stroke:none;font-family:Sans"
             id="path3004"
             inkscape:connector-curvature="0" />
          <path
             d="m 155.79637,427.08483 c 0.72,0.33601 1.392,0.55201 2.016,0.648 0.672,0.096 1.296,0.19201 1.872,0.288 0.576,0.096 1.152,0.288 1.728,0.576 0.576,0.24 1.19999,0.672 1.872,1.296 0.33599,0.24 0.98399,0.768 1.944,1.584 0.95999,0.816 1.82399,1.608 2.59201,2.376 l 0.28799,0 c -1e-5,-0.576 0.19199,-1.104 0.576,-1.584 0.43199,-0.48 0.95999,-1.032 1.584,-1.656 0.62399,-0.672 1.31999,-1.488 2.08801,-2.448 0.76797,-0.95999 1.51197,-2.15999 2.23199,-3.6 -2e-5,-0.23999 0.11998,-0.64799 0.36,-1.224 0.28798,-0.62399 0.43198,-1.10399 0.43201,-1.44 l 0,-0.36 c -0.24003,-0.57599 -0.36003,-1.03199 -0.36001,-1.368 -2e-5,-0.33599 -0.14402,-0.76799 -0.432,-1.296 -0.24002,-0.57599 -0.57602,-1.17598 -1.008,-1.8 -0.43202,-0.67198 -0.86402,-1.27198 -1.296,-1.8 -0.38401,-0.57598 -0.72001,-1.03198 -1.008,-1.368 -0.24001,-0.38398 -0.31201,-0.57598 -0.216,-0.576 -0.096,-0.14398 -0.19201,-0.40798 -0.288,-0.792 -0.096,-0.38398 -0.14401,-0.62398 -0.144,-0.72 l 0,-0.72 c -1e-5,-0.096 0.048,-0.26398 0.144,-0.504 0.096,-0.23998 0.19199,-0.40798 0.288,-0.504 l 0.504,-0.504 c 0.14399,-0.14398 0.33599,-0.21598 0.576,-0.216 l 0.21601,0 c 0.43197,2e-5 0.74397,0.14402 0.93599,0.432 0.23998,0.24002 0.50398,0.48002 0.792,0.72 l 0.288,0 0.216,-1.152 0,-1.08 c -2e-5,2e-5 -0.048,-0.048 -0.144,-0.144 -0.048,-0.14397 -0.072,-0.23997 -0.072,-0.288 l -0.72,-0.792 c -0.096,-0.096 -0.28802,-0.19197 -0.57599,-0.288 -0.24003,-0.14397 -0.48003,-0.21597 -0.72,-0.216 l -0.21601,0 c -0.19201,0.048 -0.40801,0.096 -0.648,0.144 -0.24001,0.048 -0.38401,0.072 -0.432,0.072 l -1.512,1.512 c -0.096,0.096 -0.19201,0.31202 -0.288,0.648 -0.096,0.33602 -0.14401,0.55202 -0.144,0.648 l 0,2.448 c -1e-5,0.81602 0.21599,1.58402 0.648,2.304 0.43199,0.67202 0.91199,1.34402 1.44,2.016 0.52799,0.62402 1.00799,1.24802 1.44,1.872 0.43198,0.57601 0.64798,1.17601 0.648,1.8 -2e-5,0.096 0.024,0.31201 0.072,0.648 0.048,0.28801 0.072,0.50401 0.072,0.648 -2e-5,0.67201 -0.048,1.10401 -0.144,1.296 -0.096,0.19201 -0.33602,0.60001 -0.72,1.224 -2e-5,0.24001 -0.12001,0.43201 -0.36,0.576 -0.19201,0.096 -0.43201,0.19201 -0.72,0.288 -0.28801,0.096 -0.55201,0.16801 -0.792,0.216 -0.24001,1e-5 -0.38401,1e-5 -0.432,0 -0.33601,1e-5 -0.62401,-0.048 -0.86399,-0.144 -0.19202,-0.096 -0.48002,-0.23999 -0.86401,-0.432 l -0.71999,-0.72 c -2e-5,-0.096 -0.048,-0.19199 -0.14401,-0.288 -0.048,-0.096 -0.072,-0.19199 -0.072,-0.288 l 0,-0.936 c -10e-6,-1.10399 -0.14401,-2.51999 -0.432,-4.248 -0.24001,-1.72798 -0.36001,-3.40798 -0.36,-5.04 l 0,-18.072 c 0.096,-0.14396 0.21599,-0.33596 0.36,-0.576 0.19199,-0.23996 0.40799,-0.35996 0.64801,-0.36 l 1.29599,0 c 0.14399,0.14404 0.35999,0.31204 0.648,0.504 0.33599,0.19204 0.69599,0.48004 1.08001,0.864 0.38398,0.33604 0.76798,0.79204 1.15199,1.368 0.43199,0.57604 0.79198,1.32004 1.08001,2.232 l 0.21599,0.072 c -2e-5,3e-5 0.14398,-0.23997 0.432,-0.72 0.28798,-0.52796 0.62398,-1.10396 1.008,-1.728 0.43198,-0.62396 0.81598,-1.22396 1.152,-1.8 0.33598,-0.62396 0.55198,-1.00796 0.648,-1.152 0.33598,-0.14396 0.64798,-0.40796 0.936,-0.792 0.28798,-0.38396 0.59998,-0.57596 0.936,-0.576 l 0,-0.792 -3.6,-3.528 c -2e-5,5e-5 -0.072,-0.14395 -0.216,-0.432 -0.14402,-0.28795 -0.21602,-0.47995 -0.216,-0.576 l 0,-0.216 c -0.24002,-0.23995 -0.40802,-0.52795 -0.50399,-0.864 -0.048,-0.33595 -0.26403,-0.50395 -0.64801,-0.504 -0.096,5e-5 -0.36002,0.21605 -0.79199,0.648 -0.38402,0.38405 -0.84002,0.86405 -1.36801,1.44 -0.48001,0.57605 -0.98401,1.20004 -1.512,1.872 -0.48001,0.62404 -0.88801,1.17604 -1.224,1.656 l -1.728,2.232 c -0.14401,-0.52796 -0.24001,-1.15196 -0.288,-1.872 -1e-5,-0.76796 -0.072,-1.31996 -0.216,-1.656 l -0.216,-0.432 c -0.28801,-0.71996 -0.93601,-1.53595 -1.944,-2.448 -0.96001,-0.91195 -1.824,-1.79995 -2.592,-2.664 l -0.216,0 c 0,5e-5 -0.312,0.33605 -0.936,1.008 -0.576,0.67205 -1.248,1.46405 -2.016,2.376 -0.768,0.91204 -1.536,1.84804 -2.304,2.808 -0.72,0.91204 -1.248,1.63204 -1.584,2.16 l -0.72,1.512 c 0,4e-5 -0.024,0.072 -0.072,0.216 -0.048,0.14404 -0.072,0.24004 -0.072,0.288 0.336,4e-5 0.624,-0.11996 0.864,-0.36 0.24,-0.23996 0.48,-0.50396 0.72,-0.792 0.24,-0.33596 0.504,-0.62396 0.792,-0.864 0.288,-0.23996 0.648,-0.35996 1.08,-0.36 0.528,4e-5 0.936,0.28804 1.224,0.864 0.288,0.57604 0.504,1.27204 0.648,2.088 0.144,0.81604 0.216,1.70404 0.216,2.664 0.048,0.91203 0.072,1.75203 0.072,2.52 l 0,11.736 c 0,0.19202 0,0.69602 0,1.512 0.048,0.81602 0.072,1.70402 0.072,2.664 0.048,0.91202 0.072,1.77602 0.072,2.592 0.048,0.76801 0.072,1.24801 0.072,1.44 l 0,2.592 c -0.336,0.33601 -0.624,0.69601 -0.864,1.08 -0.192,0.38401 -0.408,0.76801 -0.648,1.152 -0.192,0.33601 -0.432,0.67201 -0.72,1.008 -0.24,0.33601 -0.576,0.60001 -1.008,0.792 l -0.216,0.288 0,0.144"
             style="font-size:72px;font-style:normal;font-variant:normal;font-weight:normal;font-stretch:normal;line-height:125%;letter-spacing:0px;word-spacing:0px;fill:#000000;fill-opacity:1;stroke:none;font-family:Genzsch Et Heyse;-inkscape-font-specification:Genzsch Et Heyse"
             id="path3006"
             inkscape:connector-curvature="0" />
          <path
             d="m 187.311,432.55683 0.72,1.296 c -1e-5,0 0.024,0.024 0.072,0.072 0.048,0.048 0.096,0.072 0.144,0.072 l 0.216,-0.144 c 0.23999,-0.24 0.47999,-0.576 0.72,-1.008 0.23999,-0.432 0.43199,-0.84 0.576,-1.224 1.24799,-0.96 2.25599,-1.92 3.024,-2.88 0.81598,-0.95999 1.43998,-1.82399 1.872,-2.592 0.43198,-0.81599 0.71998,-1.51199 0.864,-2.088 0.19198,-0.57599 0.28798,-0.98399 0.288,-1.224 l 0,-1.512 c -2e-5,-0.76799 -0.16802,-1.51199 -0.504,-2.232 -0.33602,-0.76799 -0.74402,-1.51198 -1.224,-2.232 -0.48002,-0.71998 -0.96002,-1.41598 -1.44,-2.088 -0.43201,-0.71998 -0.74401,-1.41598 -0.936,-2.088 l 0,-0.216 c 0.096,-0.048 0.14399,-0.11998 0.144,-0.216 0.048,-0.14398 0.11999,-0.23998 0.216,-0.288 l 1.152,-0.792 0.576,0 c 0.14398,2e-5 0.31198,0.096 0.504,0.288 0.19198,0.14402 0.35998,0.36002 0.504,0.648 0.19198,0.24002 0.35998,0.50402 0.504,0.792 0.14398,0.24002 0.21598,0.43202 0.216,0.576 l 0.288,0.288 0.216,-1.368 0,-1.656 c -2e-5,-0.096 -0.048,-0.21598 -0.144,-0.36 -0.048,-0.19198 -0.072,-0.31198 -0.072,-0.36 l -1.08,-1.08 c -0.096,-0.096 -0.31202,-0.16798 -0.648,-0.216 -0.28802,-0.096 -0.45602,-0.16798 -0.504,-0.216 l -0.576,0 c -0.24002,2e-5 -0.45602,0.072 -0.648,0.216 -0.14401,0.14402 -0.36001,0.21602 -0.648,0.216 l -0.216,0 c -0.24001,0.48002 -0.57601,0.88802 -1.008,1.224 -0.43201,0.33602 -0.60001,0.67202 -0.504,1.008 l 0,1.512 c -1e-5,0.52802 0.14399,1.08002 0.432,1.656 0.28799,0.57602 0.62399,1.10402 1.008,1.584 0.38399,0.43202 0.74399,0.84002 1.08,1.224 0.38398,0.33602 0.62398,0.55202 0.72,0.648 0.33598,0.33602 0.62398,0.79201 0.864,1.368 0.28798,0.57601 0.43198,1.05601 0.432,1.44 l 0,1.728 c -2e-5,0.81601 -0.28802,1.48801 -0.864,2.016 -0.57602,0.52801 -1.32001,0.79201 -2.232,0.792 -0.38401,1e-5 -0.84001,-0.072 -1.368,-0.216 -0.52801,-0.19199 -1.05601,-0.43199 -1.584,-0.72 -0.48001,-0.33599 -0.88801,-0.76799 -1.224,-1.296 -0.33601,-0.52799 -0.50401,-1.15199 -0.504,-1.872 -0.048,-0.096 -0.12001,-0.26399 -0.216,-0.504 -0.048,-0.23999 -0.12001,-0.40799 -0.216,-0.504 l 0,-6.984 -0.288,-0.36 0.216,-6.264 c 1.67999,-0.95997 2.95199,-1.67997 3.816,-2.16 0.86399,-0.52797 1.48799,-0.88797 1.872,-1.08 0.43199,-0.19197 0.64798,-0.26397 0.648,-0.216 0.048,3e-5 0.072,0.024 0.072,0.072 -2e-5,0.048 0.024,0.048 0.072,0 0.096,-0.048 0.38398,-0.23997 0.864,-0.576 l 0.216,-0.216 c 0.19198,-0.19197 0.52798,-0.52797 1.008,-1.008 0.47998,-0.47997 0.95998,-1.03197 1.44,-1.656 0.52798,-0.62397 0.95998,-1.31997 1.296,-2.088 0.38398,-0.76796 0.57598,-1.55996 0.576,-2.376 l 0,-2.736 c -0.048,-0.14396 -0.19202,-0.52796 -0.432,-1.152 -0.24002,-0.67196 -0.52802,-1.36796 -0.864,-2.088 -0.33602,-0.71996 -0.69602,-1.36795 -1.08,-1.944 -0.38402,-0.57595 -0.72002,-0.86395 -1.008,-0.864 -0.048,-0.096 -0.21602,-0.33595 -0.504,-0.72 -0.24002,-0.43195 -0.38402,-0.69595 -0.432,-0.792 l -0.576,0 -0.432,0.432 c -0.86401,0.91205 -1.87201,1.68005 -3.024,2.304 -1.10401,0.62404 -2.20801,1.24804 -3.312,1.872 -1.10401,0.62404 -2.13601,1.27204 -3.096,1.944 -0.91201,0.67204 -1.608,1.51204 -2.088,2.52 -0.48,4e-5 -0.888,0.40804 -1.224,1.224 -0.336,0.76804 -0.624,1.60804 -0.864,2.52 -0.192,0.86403 -0.336,1.65603 -0.432,2.376 -0.096,0.67203 -0.12,0.91203 -0.072,0.72 0,0.14403 -0.048,0.40803 -0.144,0.792 -0.048,0.38403 -0.072,0.62403 -0.072,0.72 l 0,7.2 c 0,0.096 0,0.36002 0,0.792 0.048,0.38402 0.072,0.81602 0.072,1.296 0.048,0.43202 0.072,0.84002 0.072,1.224 0.048,0.38402 0.072,0.62402 0.072,0.72 l 0,2.808 c 0.288,2.59201 0.504,4.63201 0.648,6.12 0.144,1.44001 0.336,2.59201 0.576,3.456 0.288,0.81601 0.624,1.46401 1.008,1.944 0.432,0.432 1.056,0.936 1.872,1.512 0.14399,0.144 0.43199,0.384 0.864,0.72 0.43199,0.288 0.88799,0.6 1.368,0.936 0.47999,0.336 0.93599,0.672 1.368,1.008 0.43199,0.288 0.74399,0.48 0.936,0.576 m -0.576,-41.256 0.216,0 c 0.33599,0.19204 0.74399,0.52804 1.224,1.008 0.47999,0.43204 0.93599,0.96004 1.368,1.584 0.43199,0.57604 0.79199,1.20004 1.08,1.872 0.28799,0.67204 0.43199,1.32004 0.432,1.944 -1e-5,1.77603 -0.26401,3.12003 -0.792,4.032 -0.52801,0.91203 -1.10401,1.58403 -1.728,2.016 -0.57601,0.38403 -1.05601,0.60003 -1.44,0.648 -0.38401,3e-5 -0.43201,3e-5 -0.144,0 -0.19201,0.19203 -0.43201,0.28803 -0.72,0.288 l 0,-13.032 c -1e-5,-0.096 0.024,-0.14396 0.072,-0.144 0.096,-0.048 0.16799,-0.11996 0.216,-0.216 l 0.216,0"
             style="font-size:72px;font-style:normal;font-variant:normal;font-weight:normal;font-stretch:normal;line-height:125%;letter-spacing:0px;word-spacing:0px;fill:#000000;fill-opacity:1;stroke:none;font-family:Genzsch Et Heyse;-inkscape-font-specification:Genzsch Et Heyse"
             id="path3008"
             inkscape:connector-curvature="0" />
          <path
             d="m 199.97062,426.65283 c 0.672,0.33601 1.176,0.62401 1.51201,0.864 0.38399,0.19201 0.69599,0.40801 0.93599,0.648 0.288,0.192 0.576,0.432 0.864,0.72 0.288,0.24 0.696,0.576 1.224,1.008 l 0.216,0.216 c 0.48,0.48 0.816,0.888 1.008,1.224 0.24,0.288 0.432,0.552 0.576,0.792 0.144,0.192 0.288,0.408 0.43201,0.648 0.14399,0.24 0.40799,0.528 0.79199,0.864 l 0.432,0.216 0.28801,0 c 0.096,0.096 0.23999,-0.048 0.43199,-0.432 0.192,-0.384 0.38399,-0.672 0.576,-0.864 l 1.152,-1.152 c 0.19199,-0.096 0.50399,-0.288 0.936,-0.576 0.47999,-0.288 0.93599,-0.576 1.368,-0.864 0.47999,-0.336 0.91199,-0.624 1.296,-0.864 0.38399,-0.24 0.62399,-0.408 0.72,-0.504 l 0.216,0 c 0.67199,-0.192 1.41599,-0.64799 2.232,-1.368 0.86399,-0.71999 1.67999,-1.48799 2.448,-2.304 0.76798,-0.81599 1.43998,-1.58399 2.016,-2.304 0.57598,-0.76799 0.93598,-1.27199 1.08,-1.512 0.096,-0.096 0.21598,-0.26399 0.36,-0.504 0.14398,-0.28799 0.21598,-0.47999 0.21601,-0.576 l 0,-0.432 c -3e-5,-0.86399 0.23997,-1.72798 0.72,-2.592 0.52797,-0.91198 0.79197,-1.79998 0.79199,-2.664 l 0,-1.872 c -2e-5,-1.82398 -0.19202,-3.50398 -0.576,-5.04 -0.33602,-1.58397 -1.15202,-3.02397 -2.44799,-4.32 -0.38403,-0.38397 -0.93603,-0.71997 -1.65601,-1.008 -0.67202,-0.33597 -1.12802,-0.62397 -1.36799,-0.864 l -2.52001,0 c -0.096,0.096 -0.36001,0.21603 -0.792,0.36 -0.38401,0.14403 -0.62401,0.21603 -0.72,0.216 l -0.216,0 c -0.096,0.048 -0.28801,0.16803 -0.576,0.36 -0.24001,0.19203 -0.40801,0.31203 -0.504,0.36 l -2.448,2.52 -0.576,0.288 -0.72,0 c -1e-5,-0.19197 -0.072,-0.35997 -0.216,-0.504 -0.14401,-0.19197 -0.31201,-0.40797 -0.504,-0.648 -0.192,-0.23997 -0.36,-0.57597 -0.504,-1.008 -0.144,-0.47997 -0.216,-1.12797 -0.21599,-1.944 -1e-5,-0.19197 -0.024,-0.57597 -0.072,-1.152 -0.048,-0.62397 -0.096,-1.24797 -0.144,-1.872 0,-0.67196 -0.024,-1.29596 -0.072,-1.872 0,-0.62396 0,-1.07996 0,-1.368 l 0,-3.456 c 0.048,-0.048 0.096,-0.11996 0.144,-0.216 0.048,-0.14396 0.096,-0.23996 0.14401,-0.288 l 0.43199,-0.216 0.36,0 c 0.62399,4e-5 1.22399,0.26404 1.8,0.792 0.62399,0.48004 1.15199,1.03204 1.584,1.656 0.43199,0.62404 0.79199,1.22404 1.08001,1.8 0.28798,0.57604 0.45598,0.91204 0.50399,1.008 l 0.21601,0.216 c 0.048,4e-5 0.11998,0.048 0.21599,0.144 0.14399,0.048 0.23999,0.072 0.288,0.072 l 0.216,0 c -0.096,4e-5 0.16799,-0.31196 0.79201,-0.936 0.62398,-0.67196 1.34398,-1.43996 2.15999,-2.304 0.81599,-0.91196 1.60798,-1.79996 2.37601,-2.664 0.81597,-0.91196 1.39197,-1.60796 1.72799,-2.088 0.048,-0.096 0.14398,-0.28796 0.288,-0.576 0.19198,-0.28795 0.35998,-0.57595 0.504,-0.864 0.14398,-0.33595 0.28798,-0.64795 0.43201,-0.936 0.14397,-0.28795 0.23997,-0.50395 0.28799,-0.648 l 0,-3.96 c -2e-5,-0.096 -0.072,-0.33595 -0.21599,-0.72 -0.14403,-0.38395 -0.26403,-0.64795 -0.36001,-0.792 l -0.72,-1.512 c -2e-5,-0.52794 -0.24002,-1.00794 -0.72,-1.44 -0.48002,-0.47994 -1.00802,-0.88794 -1.584,-1.224 -0.57602,-0.33594 -1.12801,-0.59994 -1.656,-0.792 -0.48001,-0.19194 -0.74401,-0.31194 -0.792,-0.36 -0.52801,6e-5 -1.15201,-0.14394 -1.872,-0.432 -0.72001,-0.33594 -1.32001,-0.50394 -1.8,-0.504 l -0.36,0 c -0.33601,0.0961 -0.72001,0.19206 -1.152,0.288 -0.38401,0.0481 -0.79201,0.12006 -1.224,0.216 -0.38401,0.0481 -0.76801,0.14406 -1.152,0.288 -0.33601,0.0961 -0.62401,0.26406 -0.864,0.504 -1.008,0.33606 -1.728,0.69606 -2.16,1.08 -0.432,0.38406 -0.744,0.76806 -0.936,1.152 -0.192,0.33606 -0.312,0.62406 -0.36,0.864 -0.048,0.24005 -0.168,0.36005 -0.35999,0.36 -0.14401,0.24005 -0.33601,0.60005 -0.57601,1.08 -0.192,0.43205 -0.288,0.67205 -0.288,0.72 l 0,4.752 c 0,0.48005 -0.168,0.86405 -0.504,1.152 -0.288,0.28805 -0.624,0.55205 -1.008,0.792 -0.384,0.19205 -0.744,0.38405 -1.08,0.576 -0.288,0.14405 -0.432,0.31205 -0.432,0.504 0.96,5e-5 1.752,-0.096 2.376,-0.288 0.624,-0.23995 1.128,-0.47995 1.51201,-0.72 0.38399,-0.23995 0.69599,-0.45595 0.93599,-0.648 0.288,-0.23995 0.552,-0.35995 0.792,-0.36 0.624,-0.62395 1.056,-1.29595 1.29601,-2.016 0.28799,-0.76795 0.43199,-1.36795 0.43199,-1.8 l 0,-1.944 c 0,-0.19195 0.024,-0.43195 0.072,-0.72 0.096,-0.28795 0.19199,-0.57595 0.288,-0.864 0.14399,-0.28795 0.23999,-0.55194 0.288,-0.792 0.096,-0.23994 0.14399,-0.38394 0.144,-0.432 l 0.936,-0.936 c 0.43199,-0.43194 0.95999,-0.74394 1.584,-0.936 0.67199,-0.23994 1.27199,-0.35994 1.8,-0.36 l 0.72,0 c 1.53599,0.24006 2.78399,0.62406 3.744,1.152 0.95998,0.48006 1.70398,1.00806 2.232,1.584 0.52798,0.52805 0.88798,1.03205 1.08,1.512 0.23998,0.48005 0.38398,0.81605 0.432,1.008 0.14398,0.19205 0.21598,0.48005 0.216,0.864 0.048,0.33605 0.072,0.84005 0.072,1.512 -2e-5,0.52805 -0.096,1.08005 -0.288,1.656 -0.14402,0.57605 -0.38402,1.10405 -0.72,1.584 -0.28802,0.48005 -0.64802,0.88805 -1.08,1.224 -0.38402,0.28805 -0.79202,0.43205 -1.224,0.432 l -0.432,0 c -0.62401,5e-5 -1.15201,-0.19195 -1.584,-0.576 -0.38401,-0.43195 -0.72001,-0.88795 -1.008,-1.368 -0.24001,-0.47995 -0.40801,-0.88795 -0.504,-1.224 -0.096,-0.33595 -0.14401,-0.43195 -0.144,-0.288 l -0.792,-0.576 -0.28799,0 c -2e-5,0.43205 -0.28802,0.91205 -0.86401,1.44 -0.57601,0.52805 -1.20001,1.03205 -1.872,1.512 -0.67201,0.48005 -1.29601,0.91205 -1.872,1.296 -0.57601,0.33604 -0.888,0.50404 -0.936,0.504 0,0.096 -0.12,0.19204 -0.36,0.288 -0.192,0.096 -0.312,0.19204 -0.36,0.288 l -0.216,0.216 c -0.096,0.048 -0.36,0.21604 -0.792,0.504 -0.432,0.24004 -0.672,0.38404 -0.72,0.432 l -1.296,1.296 c -0.96,0.96004 -1.776,1.96804 -2.448,3.024 -0.624,1.00804 -1.128,1.99204 -1.512,2.952 -0.384,0.91203 -0.648,1.75203 -0.792,2.52 -0.144,0.76803 -0.216,1.36803 -0.216,1.8 l 0,2.016 c 0,1.82403 0.264,3.24003 0.79201,4.248 0.57599,0.96002 1.17599,1.68002 1.79999,2.16 0.624,0.43202 1.152,0.69602 1.584,0.792 0.432,0.048 0.552,0.072 0.36,0.072 l 2.23201,0 c 0.47999,0.14402 0.98399,0.048 1.512,-0.288 0.52799,-0.38398 0.98398,-0.79198 1.36799,-1.224 0.43199,-0.47998 0.76799,-0.88798 1.008,-1.224 0.23999,-0.33597 0.28799,-0.43197 0.144,-0.288 l 0.216,-0.216 c 0.38399,-0.28797 0.71999,-0.57597 1.008,-0.864 0.28799,-0.28797 0.52799,-0.43197 0.72,-0.432 l 1.51201,0 c 0.71998,0.43203 1.22398,1.10403 1.512,2.016 0.33598,0.91202 0.55198,1.99202 0.64799,3.24 0.14399,1.20002 0.19199,2.52002 0.144,3.96 -0.048,1.39202 -0.072,2.80801 -0.072,4.248 l 0,2.304 c -1e-5,1.96801 -0.19201,3.24001 -0.576,3.816 -0.33601,0.57601 -0.52801,0.81601 -0.576,0.72 -0.096,10e-6 -0.28801,0.048 -0.576,0.144 -0.24001,0.048 -0.40801,0.072 -0.50399,0.072 l -0.21601,0 c -0.28801,10e-6 -0.62401,-0.096 -1.008,-0.288 -0.33601,-0.19199 -0.69601,-0.40799 -1.08,-0.648 -0.33601,-0.28799 -0.67201,-0.57599 -1.008,-0.864 -0.28801,-0.28799 -0.52801,-0.52799 -0.72,-0.72 l -1.512,-1.728 0,-0.216 c 0.096,-0.096 0.21599,-0.31199 0.36,-0.648 0.14399,-0.33599 0.21599,-0.55199 0.216,-0.648 l 0,-1.296 c -1e-5,-0.14399 -0.048,-0.43199 -0.144,-0.864 -0.048,-0.47999 -0.072,-0.76799 -0.072,-0.864 l -0.79199,-1.512 c -0.43201,-0.43198 -0.88801,-0.81598 -1.36801,-1.152 -0.48,-0.38398 -1.128,-0.57598 -1.944,-0.576 l -0.432,0 c -0.432,2e-5 -0.888,0.19202 -1.368,0.576 -0.48,0.33602 -0.72,0.57602 -0.72,0.72 l 0,1.512 c 0.096,0.19202 0.264,0.45601 0.504,0.792 0.288,0.28801 0.552,0.43201 0.792,0.432 l 0.432,0 c 0.288,1e-5 0.576,-0.19199 0.864,-0.576 0.288,-0.38398 0.432,-0.69598 0.432,-0.936 l 0.432,-0.216 0.144,0 c 0.24,0.096 0.456,0.26402 0.648,0.504 0.192,0.19202 0.36,0.43201 0.504,0.72 0.144,0.28801 0.264,0.57601 0.36,0.864 0.096,0.24001 0.168,0.43201 0.216,0.576 0,1.10401 -0.24,1.99201 -0.72,2.664 -0.48,0.67201 -0.936,1.12801 -1.368,1.368 -0.432,0.19201 -0.672,0.28801 -0.72,0.288 -0.768,0.38401 -1.608,0.76801 -2.52,1.152 -0.864,0.38401 -1.68,0.57601 -2.448,0.576 l 0,0.576"
             style="font-size:72px;font-style:normal;font-variant:normal;font-weight:normal;font-stretch:normal;line-height:125%;letter-spacing:0px;word-spacing:0px;fill:#000000;fill-opacity:1;stroke:none;font-family:Genzsch Et Heyse;-inkscape-font-specification:Genzsch Et Heyse"
             id="path3010"
             inkscape:connector-curvature="0" />
          <path
             d="m 229.05075,425.64483 0.72,2.304 c 0.43199,0.432 0.81599,0.888 1.152,1.368 0.33599,0.48 0.88799,0.912 1.656,1.296 0.28799,0.288 0.62399,0.528 1.008,0.72 0.38399,0.144 0.69599,0.336 0.936,0.576 l 0.792,0.792 c 0.048,0.048 0.11999,0.192 0.216,0.432 0.14399,0.192 0.23999,0.288 0.288,0.288 l 0.576,0 c 0.43199,-0.96 0.98399,-1.8 1.656,-2.52 0.67198,-0.72 1.27198,-1.632 1.8,-2.736 0.91198,-0.95999 1.58398,-1.94399 2.016,-2.952 0.43198,-1.00799 0.64798,-1.72799 0.648,-2.16 -0.43202,1e-5 -0.81602,0.19201 -1.152,0.576 -0.28802,0.33601 -0.55202,0.76801 -0.792,1.296 l -0.216,0.216 c -0.096,0.096 -0.24002,0.16801 -0.432,0.216 -0.19202,0.048 -0.36002,0.072 -0.504,0.072 -0.52802,10e-6 -1.05602,-0.21599 -1.584,-0.648 -0.48001,-0.43199 -0.72001,-0.88799 -0.72,-1.368 l 0,-1.296 c -10e-6,-0.14399 -0.024,-0.40799 -0.072,-0.792 -0.048,-0.38399 -0.12001,-0.79199 -0.216,-1.224 -0.048,-0.43199 -0.096,-0.83999 -0.144,-1.224 -0.048,-0.38399 -0.072,-0.64799 -0.072,-0.792 l 0.216,-22.896 0.216,0 c 0.52799,4e-5 1.05599,0.096 1.584,0.288 0.57598,0.19204 1.15198,0.43204 1.728,0.72 l 0.216,-0.216 c 0.33598,-1.63196 0.47998,-2.99996 0.432,-4.104 -2e-5,-1.10396 0.21598,-2.08796 0.648,-2.952 -2e-5,-0.43196 0.096,-0.83995 0.288,-1.224 0.19198,-0.38395 0.28798,-0.76795 0.288,-1.152 l -0.36,0.144 c -0.67202,5e-5 -1.27202,0.26405 -1.8,0.792 -0.48002,0.48005 -1.05602,0.72004 -1.728,0.72 l -1.224,0 c -0.096,4e-5 -0.24001,-0.0719 -0.432,-0.216 -0.19201,-0.14395 -0.28801,-0.26395 -0.288,-0.36 l 0,-1.728 c -10e-6,-1.43995 0.16799,-2.92795 0.504,-4.464 0.33599,-1.58395 0.91199,-2.78395 1.728,-3.6 l 1.008,-1.008 c 0.14398,-0.14394 0.40798,-0.33594 0.792,-0.576 0.38398,-0.23994 0.69598,-0.35994 0.936,-0.36 l 0.504,-0.648 0,-0.144 c -2e-5,-0.0479 -0.072,-0.0959 -0.216,-0.144 -0.14402,-0.0479 -0.24002,-0.0959 -0.288,-0.144 l -0.216,0 -4.536,1.512 c -0.38401,0.38406 -0.88801,0.72006 -1.512,1.008 -0.62401,0.28806 -1.12801,0.62406 -1.512,1.008 l -1.728,1.728 c -0.62401,0.62405 -1.20001,1.51205 -1.728,2.664 -0.48001,1.15205 -0.84001,2.13605 -1.08,2.952 l -0.216,0.432 c -1e-5,0.67205 -0.16801,1.36805 -0.504,2.088 -0.288,0.72004 -0.672,1.44004 -1.152,2.16 -0.432,0.72004 -0.912,1.44004 -1.44,2.16 -0.528,0.72004 -1.008,1.44004 -1.44,2.16 l 0,0.648 3.96,0 0.36,0.432 c -1e-5,4e-5 -1e-5,0.60004 0,1.8 -1e-5,1.20003 -1e-5,2.64003 0,4.32 0.048,1.68003 0.072,3.40803 0.072,5.184 0.048,1.77602 0.096,3.26402 0.144,4.464 l 0,1.296 c -1e-5,0.19202 -1e-5,0.64802 0,1.368 0.048,0.67202 0.072,1.44002 0.072,2.304 0.048,0.81602 0.072,1.58402 0.072,2.304 0.048,0.72001 0.072,1.17601 0.072,1.368 l 0,5.472"
             style="font-size:72px;font-style:normal;font-variant:normal;font-weight:normal;font-stretch:normal;line-height:125%;letter-spacing:0px;word-spacing:0px;fill:#000000;fill-opacity:1;stroke:none;font-family:Genzsch Et Heyse;-inkscape-font-specification:Genzsch Et Heyse"
             id="path3012"
             inkscape:connector-curvature="0" />
        </g>
        <g
           id="g3063"
           transform="translate(-20,0)">
          <path
             d="m 333.32812,405.10683 0,1.4 c 0,0.73337 0.1,1.7667 0.3,3.1 0.26667,1.2667 0.5,2.53337 0.7,3.8 0.26667,1.2667 0.5,2.3667 0.7,3.3 0.26667,0.8667 0.4,1.30003 0.40001,1.3 0.39999,1.53336 0.69999,2.76669 0.89999,3.7 0.26667,0.86669 0.53333,1.70002 0.8,2.5 0.33333,0.80002 0.73333,1.70002 1.2,2.7 0.46666,0.93335 1.13333,2.26668 2,4 0.4,0.93335 0.86666,1.83335 1.4,2.7 0.53333,0.86668 1.23333,1.73334 2.1,2.6 l 3.7,3.7 c 0.46666,0.46667 1.09999,0.93334 1.90001,1.4 0.79998,0.46667 1.63331,0.9 2.5,1.3 0.86664,0.4 1.63331,0.8 2.29999,1.2 0.73332,0.33334 1.19998,0.6 1.4,0.8 0.19998,0 0.63331,0.0667 1.30001,0.2 0.66664,0.13333 1.39997,0.3 2.19999,0.5 0.79998,0.13333 1.63331,0.26667 2.5,0.4 0.86664,0.13333 1.66664,0.2 2.4,0.2 l 1.40001,0 c 2.46663,0 4.69996,-0.43333 6.69999,-1.3 2.06663,-0.93333 3.89996,-2.03333 5.5,-3.3 1.59996,-1.33333 2.96662,-2.69999 4.1,-4.1 1.19995,-1.46666 2.16662,-2.76665 2.9,-3.9 0.46662,-0.46665 0.89995,-0.99999 1.30001,-1.6 0.39994,-0.59998 0.76661,-1.29998 1.09999,-2.1 l 0.7,-1.5 c 1.33328,-2.13331 2.23328,-4.03331 2.70001,-5.7 0.53327,-1.73331 0.79994,-2.63331 0.79999,-2.7 0.26661,-0.53331 0.46661,-1.16664 0.6,-1.9 0.19994,-0.79997 0.33328,-1.59997 0.4,-2.4 0.0666,-0.79997 0.13328,-1.5333 0.20001,-2.2 0.0666,-0.66663 0.1666,-1.16663 0.29999,-1.5 l 0,-11.8 c -6e-5,-1.46662 -0.26672,-2.93328 -0.79999,-4.4 -0.5334,-1.46661 -1.1334,-2.76661 -1.80001,-3.9 -0.66672,-1.13328 -1.26672,-2.06661 -1.8,-2.8 -0.53338,-0.73328 -0.83338,-1.13327 -0.89999,-1.2 l -2.10001,-2.1 c -0.33338,6e-5 -0.73338,-0.23327 -1.2,-0.7 -0.46671,-0.4666 -0.86671,-0.69994 -1.19999,-0.7 l -1,0 c -0.26672,-0.0666 -0.60005,-0.1666 -1,-0.3 -0.33339,-0.19994 -0.50005,-0.33327 -0.5,-0.4 l 1.5,-1.1 0.29999,-0.3 c 1.26662,-1.6666 2.13329,-2.93327 2.6,-3.8 0.53328,-0.93326 0.79995,-1.9666 0.8,-3.1 l 0,-1.2 c -5e-5,-0.79993 -0.10005,-1.49993 -0.3,-2.1 -0.20005,-0.59992 -0.50005,-1.16659 -0.89999,-1.7 -0.33339,-0.59992 -0.80006,-1.19992 -1.40001,-1.8 -0.53338,-0.59992 -1.16671,-1.26659 -1.9,-2 -0.60004,8e-5 -1.20004,-0.26659 -1.8,-0.8 -0.53338,-0.59992 -0.96671,-0.89992 -1.3,-0.9 l -1.09999,-1 c -0.26672,-0.26658 -0.40005,-0.76658 -0.40001,-1.5 -4e-5,-0.86658 0.43329,-1.43325 1.3,-1.7 0.93329,-0.26658 1.69996,-0.39991 2.3,-0.4 l 0,-0.6 -6.6,0 c -0.8667,9e-5 -1.80003,0.33342 -2.8,1 -1.00003,0.66675 -1.63337,1.13342 -1.9,1.4 l -0.3,0.3 c -1.20003,1.86675 -2.20003,3.20008 -3,4 -0.73336,0.73341 -1.30003,1.20008 -1.7,1.4 -0.40003,0.20008 -0.70003,0.26675 -0.89999,0.2 -0.13337,-0.13325 -0.20004,-0.0999 -0.20001,0.1 -0.13336,8e-5 -0.36669,0.0668 -0.7,0.2 -0.33336,0.0667 -0.66669,0.16674 -1,0.3 -0.33336,0.0667 -0.66669,0.16674 -1,0.3 -0.26669,0.13341 -0.43336,0.20008 -0.5,0.2 l -0.4,0 c -0.60002,-0.59992 -1.36669,-1.19992 -2.3,-1.8 -0.86669,-0.66659 -2.06668,-0.99992 -3.6,-1 l -1.79999,0 c -1.06669,8e-5 -1.96669,0.13341 -2.70001,0.4 -0.66668,0.20008 -1.23334,0.43341 -1.7,0.7 -0.46668,0.20008 -0.86668,0.43341 -1.2,0.7 -0.26668,0.20008 -0.50001,0.30008 -0.7,0.3 -1.93334,1.93341 -3.3,3.33341 -4.1,4.2 -0.73334,0.80007 -1.23334,1.40007 -1.5,1.8 -0.26667,0.40007 -0.43334,0.7334 -0.5,1 0,0.26674 -0.16667,0.7334 -0.5,1.4 -1.26667,2.1334 -2.1,4.30007 -2.5,6.5 -0.4,2.13339 -0.96666,4.36673 -1.7,6.7 l 0,0.4 c 0,2.33339 -0.16666,4.53339 -0.5,6.6 -0.33333,2.06671 -0.5,4.36671 -0.5,6.9 l 0,1.5 m 38.10001,29 0.29999,-9.2 c 0.46663,-0.46664 0.86663,-0.83331 1.20001,-1.1 0.33329,-0.33331 0.63329,-0.86664 0.89999,-1.6 l 0,-1 c -4e-5,-0.13331 -0.10004,-0.36664 -0.3,-0.7 -0.20004,-0.39997 -0.3667,-0.66664 -0.5,-0.8 l -0.3,-0.3 c -0.20004,-0.13331 -0.43337,-0.26664 -0.7,-0.4 -0.20004,-0.13331 -0.30003,-0.36664 -0.3,-0.7 l 0,-7.6 c -3e-5,-0.5333 0.1,-1.16663 0.3,-1.9 0.26663,-0.79996 0.39996,-1.46663 0.40001,-2 l 0,-5.9 c -5e-5,-0.46662 -0.13338,-1.06662 -0.40001,-1.8 -0.20004,-0.79995 -0.30003,-1.49995 -0.3,-2.1 l 0,-1 0.70001,0 c 0.66662,0.40005 1.26662,0.76672 1.79999,1.1 0.59996,0.26672 1.23329,0.63338 1.9,1.1 0.66663,0.46671 1.39996,1.06671 2.2,1.8 0.79996,0.66671 1.73329,1.53338 2.8,2.6 -4e-5,0.60004 0.19996,1.20004 0.6,1.8 0.46662,0.53337 0.96662,1.23337 1.5,2.1 l 1.1,1.8 c 0.19995,0.6667 0.36662,1.23337 0.5,1.7 0.19995,0.4667 0.36662,0.9667 0.5,1.5 0.19995,0.4667 0.39995,1.0667 0.60001,1.8 0.19994,0.73337 0.46661,1.70003 0.79999,2.9 l 0,5.6 c -5e-5,1.53336 -0.20005,2.83336 -0.6,3.9 -0.40005,1.00002 -0.86672,1.86669 -1.4,2.6 -0.53338,0.66668 -1.03338,1.20002 -1.5,1.6 -0.46671,0.40002 -0.80005,0.73335 -1,1 l -1.1,1.1 c -0.73338,0.53335 -1.80004,1.06668 -3.19999,1.6 -1.33338,0.53335 -2.70005,0.80001 -4.10001,0.8 l -2.1,0 c -0.13337,10e-6 -0.23337,-0.0333 -0.29999,-0.1 -4e-5,-0.13332 -4e-5,-0.19999 0,-0.2 m -23.40001,-15 0,-0.5 c 0.99999,1.00003 1.89999,1.66669 2.7,2 0.79999,0.33336 1.49998,0.53336 2.1,0.6 0.66665,0.0667 1.23332,0.0334 1.7,-0.1 0.53332,-0.13331 0.96665,-0.19997 1.3,-0.2 1.39998,3e-5 2.63331,-0.1 3.7,-0.3 1.06664,-0.26664 2.03331,-0.59997 2.90001,-1 0.9333,-0.46664 1.8333,-0.99997 2.69999,-1.6 0.9333,-0.66664 1.96664,-1.36664 3.1,-2.1 0.3333,-0.19997 0.56663,-0.46664 0.70001,-0.8 0.13329,-0.39997 0.36662,-0.7333 0.69999,-1 0.1333,3e-5 0.2333,0.1667 0.30001,0.5 0.0666,0.2667 0.1,0.4667 0.1,0.6 -3e-5,2.53336 -0.73337,4.53336 -2.2,6 l 0,1.3 c 0.0666,0.13336 0.16664,0.33336 0.3,0.6 0.19997,0.20002 0.3333,0.36669 0.4,0.5 l 1.1,1 0,9.6 c -2.4667,10e-6 -4.76669,-0.43332 -6.9,-1.3 -2.13336,-0.93332 -4.03336,-1.96665 -5.7,-3.1 -1.60002,-1.13332 -2.93335,-2.19998 -4,-3.2 -1.00002,-1.06665 -1.63335,-1.73331 -1.9,-2 0.0666,-0.0666 -0.0667,-0.29998 -0.4,-0.7 -0.33335,-0.39998 -0.70001,-0.83331 -1.1,-1.3 -0.40001,-0.53331 -0.76668,-1.06664 -1.1,-1.6 -0.33334,-0.59997 -0.50001,-1.13331 -0.5,-1.6 l 0,-0.3 m 21.90001,2.5 0.69999,-1.2 0.80001,0 c 0.19996,0.26669 0.36662,0.50003 0.5,0.7 0.13329,0.13336 0.19995,0.30002 0.19999,0.5 -4e-5,0.13336 -0.0667,0.36669 -0.19999,0.7 -0.13338,0.33336 -0.30004,0.50002 -0.5,0.5 l -0.20001,0.2 c -0.13337,-0.13331 -0.3667,-0.26664 -0.7,-0.4 -0.2667,-0.13331 -0.4667,-0.26664 -0.59999,-0.4 l 0,-0.6 m -27.90001,-29.8 c -10e-6,-2.73328 0.1,-4.96661 0.3,-6.7 0.26666,-1.73327 0.49999,-2.8666 0.7,-3.4 0.19999,-0.59993 0.29999,-0.93327 0.3,-1 0.66666,-1.39993 1.23333,-2.8666 1.7,-4.4 0.46666,-1.59993 1.03332,-3.03326 1.7,-4.3 0.66666,-1.26659 1.53332,-2.29992 2.6,-3.1 1.06665,-0.86659 2.56665,-1.29992 4.5,-1.3 0.86665,8e-5 1.63331,0.16675 2.3,0.5 0.73331,0.33341 1.26665,0.93341 1.6,1.8 l 0,0.3 -0.29999,0.3 c -0.33336,0.33341 -0.7667,0.70008 -1.30001,1.1 -0.53335,0.40007 -1.03335,0.73341 -1.5,1 l -0.8,0.7 c -0.26668,0.60007 -0.60002,1.20007 -1,1.8 -0.40002,0.5334 -0.80002,1.10007 -1.2,1.7 -0.40001,0.5334 -0.76668,1.0334 -1.1,1.5 -0.26668,0.46673 -0.40001,0.90007 -0.4,1.3 -0.0667,7e-5 -0.13335,0.16673 -0.19999,0.5 -0.0667,0.26673 -0.16669,0.60007 -0.30001,1 -0.0667,0.3334 -0.13335,0.66673 -0.19999,1 -0.0667,0.3334 -0.10002,0.56673 -0.10001,0.7 l 0,4.8 c -10e-6,1.60006 0.33332,3.10006 1,4.5 0.66665,1.40005 1.36665,2.60005 2.10001,3.6 0.79997,1.00005 1.49997,1.80005 2.09999,2.4 0.59998,0.53338 0.86665,0.76671 0.8,0.7 1.46665,1.46671 2.59998,2.90004 3.4,4.3 0.79998,1.33338 1.43331,2.46671 1.9,3.4 l 0.30001,0.3 c -3e-5,0.20004 0.0666,0.70004 0.19999,1.5 0.13331,0.73337 0.29998,1.53337 0.5,2.4 l 0,1 c -0.60002,0.6667 -1.03336,1.3667 -1.3,2.1 -0.20002,0.6667 -0.43336,1.3667 -0.7,2.1 -0.26669,0.6667 -0.70002,1.30003 -1.3,1.9 -0.53335,0.53336 -1.43335,0.96669 -2.7,1.3 l -3.4,0 c -1.60001,3e-5 -2.96668,-0.56664 -4.1,-1.7 -1.13334,-1.1333 -2.10001,-2.4333 -2.9,-3.9 -0.73334,-1.5333 -1.30001,-3.0333 -1.7,-4.5 -0.33334,-1.53329 -0.50001,-2.63329 -0.5,-3.3 -10e-6,-0.13329 -0.0667,-0.36663 -0.2,-0.7 -0.0667,-0.33329 -0.10001,-0.53329 -0.1,-0.6 l 0,-1.1 c -1e-5,-0.59996 -0.0333,-1.39996 -0.1,-2.4 -0.0667,-1.06662 -0.16667,-2.13329 -0.3,-3.2 -0.0667,-1.13328 -0.13334,-2.23328 -0.2,-3.3 -0.0667,-1.06661 -0.10001,-1.93328 -0.1,-2.6 m 17.8,-16.1 0,-1.3 c -2e-5,-0.73326 0.16664,-1.43326 0.5,-2.1 0.39998,-0.73326 0.83331,-1.33326 1.3,-1.8 0.53331,-0.53326 1.03331,-0.93326 1.5,-1.2 0.53331,-0.33326 0.93331,-0.49992 1.2,-0.5 0.13331,-0.0666 0.36664,-0.13326 0.7,-0.2 0.3333,-0.0666 0.56664,-0.13326 0.7,-0.2 l 0.4,0 c 0.19997,1.60008 0.76664,3.00007 1.7,4.2 l 2.5,2.5 c 0.26663,0.26674 0.59997,0.5334 1,0.8 0.46663,0.26674 0.89996,0.50007 1.3,0.7 0.39996,0.20007 0.7333,0.40007 1,0.6 0.3333,0.1334 0.49996,0.2334 0.5,0.3 l 1,1.1 c 0.13329,0.0667 0.29996,0.2334 0.5,0.5 0.19996,0.26673 0.29996,0.4334 0.30001,0.5 l 0,2.4 c -5e-5,0.40006 -0.13338,0.80006 -0.40001,1.2 -0.20004,0.40006 -0.43337,0.70006 -0.7,0.9 l -1,1.1 c -0.33337,0.33339 -0.7667,0.73339 -1.3,1.2 -0.53337,0.40006 -0.80003,0.60006 -0.8,0.6 l -0.29999,0 0.29999,-5.3 c 0.0666,-0.0666 0.16663,-0.23327 0.3,-0.5 0.19996,-0.2666 0.3333,-0.43327 0.40001,-0.5 l 0,-2.1 -0.40001,-0.5 c -0.13337,7e-5 -0.2667,-0.0333 -0.4,-0.1 -0.13337,-0.13326 -0.20003,-0.19993 -0.19999,-0.2 l -1.80001,0 -1.1,1.1 0,1.8 c -3e-5,0.0667 0.1,0.30007 0.3,0.7 0.19997,0.3334 0.36663,0.5334 0.5,0.6 l 0,9.3 c -0.0667,6e-5 -0.30003,-0.23328 -0.7,-0.7 -0.40003,-0.53328 -0.90003,-1.13328 -1.5,-1.8 -0.60003,-0.66661 -1.23336,-1.36661 -1.9,-2.1 -0.60003,-0.73327 -1.13336,-1.33327 -1.6,-1.8 -0.33336,-0.6666 -0.66669,-1.19994 -1,-1.6 -0.33336,-0.4666 -0.66669,-0.8666 -1,-1.2 -0.26669,-0.33327 -0.50002,-0.6666 -0.69999,-1 -0.20003,-0.33327 -0.30003,-0.73327 -0.30001,-1.2 -0.26669,-0.19993 -0.46669,-0.63327 -0.6,-1.3 -0.13336,-0.6666 -0.20002,-1.1666 -0.2,-1.5 l 0,-1.4"
             style="font-size:100px;font-style:normal;font-weight:normal;line-height:125%;letter-spacing:0px;word-spacing:0px;fill:#000000;fill-opacity:1;stroke:none;font-family:Sans"
             id="path3018"
             inkscape:connector-curvature="0" />
          <path
             d="m 400.90081,433.13283 0.648,0.936 0.144,0 c 0.048,0 0.16799,-0.168 0.36,-0.504 0.23999,-0.384 0.45599,-0.768 0.648,-1.152 0.19199,-0.432 0.33599,-0.792 0.432,-1.08 0.14399,-0.288 0.16799,-0.384 0.072,-0.288 0.38399,-0.384 0.86399,-0.96 1.44,-1.728 0.62399,-0.768 1.19999,-1.53599 1.728,-2.304 0.57599,-0.76799 1.05599,-1.41599 1.44,-1.944 0.43199,-0.57599 0.64799,-0.83999 0.648,-0.792 l 0.36,0.072 c -10e-6,0.19201 -0.024,0.52801 -0.072,1.008 -0.048,0.48001 -0.072,0.79201 -0.072,0.936 -10e-6,0.33601 0.14399,0.84001 0.432,1.512 0.33599,0.624 0.62399,1.128 0.864,1.512 l 0.792,0.792 c 0.43199,0.432 0.88798,0.888 1.368,1.368 0.47998,0.48 0.91198,0.912 1.296,1.296 0.38398,0.384 0.67198,0.696 0.864,0.936 0.23998,0.24 0.31198,0.36 0.216,0.36 l 0.216,0 0.216,-0.216 c 1.15198,-1.632 2.25598,-3.192 3.312,-4.68 1.10398,-1.48799 2.20798,-3.26399 3.312,-5.328 -0.096,-0.096 -0.19202,-0.21599 -0.288,-0.36 -0.096,-0.14399 -0.19202,-0.21599 -0.288,-0.216 -0.048,0.096 -0.16802,0.31201 -0.36,0.648 -0.19202,0.33601 -0.31202,0.55201 -0.36,0.648 l -0.792,0.792 c -0.048,10e-6 -0.14402,0.048 -0.288,0.144 -0.096,0.048 -0.16802,0.072 -0.216,0.072 l -1.224,0 c -0.33602,10e-6 -0.60002,-0.19199 -0.792,-0.576 -0.19202,-0.43199 -0.36002,-0.88799 -0.504,-1.368 -0.096,-0.52799 -0.16802,-1.00799 -0.216,-1.44 -2e-5,-0.47999 -2e-5,-0.76799 0,-0.864 l 0,-6.768 c -2e-5,-0.096 -0.048,-0.38398 -0.144,-0.864 -0.048,-0.52798 -0.072,-0.81598 -0.072,-0.864 l 0,-1.296 -0.288,-0.576 -0.432,-0.432 0.432,-0.216 0.504,-14.04 c -2e-5,-0.67196 0.11998,-1.19996 0.36,-1.584 0.28798,-0.43196 0.59998,-0.76796 0.936,-1.008 0.38398,-0.23996 0.74398,-0.40796 1.08,-0.504 0.33598,-0.096 0.55198,-0.16796 0.648,-0.216 l 0,-0.432 c -2e-5,-0.048 -0.24002,-0.16796 -0.72,-0.36 -0.43202,-0.23996 -0.93602,-0.50396 -1.512,-0.792 -0.57602,-0.28796 -1.12802,-0.52796 -1.656,-0.72 -0.48002,-0.23996 -0.76802,-0.38396 -0.864,-0.432 -0.96002,-0.57596 -1.72802,-1.05596 -2.304,-1.44 -0.57601,-0.43196 -1.08001,-0.79195 -1.512,-1.08 -0.43201,-0.33595 -0.81601,-0.64795 -1.152,-0.936 -0.28801,-0.28795 -0.64801,-0.64795 -1.08,-1.08 l -0.72,0 -2.736,2.52 c -0.24001,0.14404 -0.55201,0.38404 -0.936,0.72 -0.33601,0.28804 -0.69601,0.62404 -1.08,1.008 -0.38401,0.33604 -0.76801,0.64804 -1.152,0.936 -0.384,0.24004 -0.696,0.36004 -0.936,0.36 -0.96,0.96004 -1.8,1.75204 -2.52,2.376 -0.672,0.57604 -1.248,1.27204 -1.728,2.088 -0.48,0.76804 -0.84,1.75204 -1.08,2.952 -0.24,1.20003 -0.36,2.83203 -0.36,4.896 l 0,9.288 c 0,0.096 0,0.40802 0,0.936 0.048,0.48002 0.072,1.00802 0.072,1.584 0.048,0.52802 0.072,1.05602 0.072,1.584 0.048,0.48002 0.072,0.76802 0.072,0.864 l 0,1.728 c 0.288,2.30401 0.456,3.98401 0.504,5.04 0.096,1.00801 0.144,1.70401 0.144,2.088 0.048,0.38401 0.072,0.62401 0.072,0.72 0.048,0.048 0.168,0.26401 0.36,0.648 0,0.192 0.144,0.504 0.432,0.936 0.336,0.384 0.72,0.816 1.152,1.296 0.48,0.48 0.96,0.984 1.44,1.512 0.528,0.48 0.984,0.936 1.368,1.368 m 2.304,-10.296 c -1e-5,-1.67999 -0.024,-3.74399 -0.072,-6.192 -0.048,-2.44798 -0.096,-5.08798 -0.144,-7.92 -10e-6,-2.83197 -0.024,-5.73597 -0.072,-8.712 -0.048,-3.02396 -0.072,-5.95196 -0.072,-8.784 l 0.36,0 c 0.14399,4e-5 0.31199,0.096 0.504,0.288 0.19199,0.19204 0.38399,0.40804 0.576,0.648 0.23999,0.19204 0.45599,0.38404 0.648,0.576 0.19199,0.14404 0.35999,0.21604 0.504,0.216 0.47999,0.33604 0.91199,0.60004 1.296,0.792 0.38399,0.19204 0.69599,0.43204 0.936,0.72 0.23999,0.28804 0.43199,0.67204 0.576,1.152 0.14399,0.48004 0.21599,1.17604 0.216,2.088 l 0,5.256 c -10e-6,1.15203 -0.048,2.18403 -0.144,3.096 -0.096,0.86403 -0.14401,2.06403 -0.144,3.6 -1e-5,0.72002 -1e-5,1.32002 0,1.8 0.048,0.43202 0.096,0.81602 0.144,1.152 0.048,0.33602 0.072,0.64802 0.072,0.936 0.048,0.28802 0.072,0.62402 0.072,1.008 l 0,6.768 c -0.14401,0.33601 -0.33601,0.79201 -0.576,1.368 -0.24001,0.57601 -0.36001,0.96001 -0.36,1.152 l -0.792,0.72 c -0.048,1e-5 -0.14401,0.048 -0.288,0.144 -0.096,0.048 -0.16801,0.072 -0.216,0.072 l -1.512,0 -0.432,-0.216 c -0.33601,-0.33599 -0.60001,-0.59999 -0.792,-0.792 -0.19201,-0.23999 -0.28801,-0.55199 -0.288,-0.936"
             style="font-size:72px;font-style:normal;font-variant:normal;font-weight:normal;font-stretch:normal;line-height:125%;letter-spacing:0px;word-spacing:0px;fill:#000000;fill-opacity:1;stroke:none;font-family:Genzsch Et Heyse;-inkscape-font-specification:Genzsch Et Heyse"
             id="path3020"
             inkscape:connector-curvature="0" />
          <path
             d="m 425.88144,427.08483 c -10e-6,0.57601 0.19199,1.152 0.576,1.728 0.43199,0.576 0.91199,1.128 1.44,1.656 0.57599,0.528 1.12799,0.984 1.656,1.368 0.57599,0.336 1.00799,0.576 1.296,0.72 l 0.576,0.576 c 0.048,0.048 0.11999,0.216 0.216,0.504 0.14399,0.24 0.21599,0.384 0.216,0.432 l 0.288,0 0.216,-0.216 c 0.096,-0.048 0.31199,-0.288 0.648,-0.72 0.33599,-0.432 0.71999,-0.936 1.152,-1.512 0.43198,-0.576 0.86398,-1.152 1.296,-1.728 0.47998,-0.624 0.88798,-1.176 1.224,-1.656 l 0.432,-0.432 c 0.38398,-0.38399 0.71998,-0.81599 1.008,-1.296 0.28798,-0.47999 0.57598,-0.98399 0.864,-1.512 l 0,-0.72 c -2e-5,10e-6 -0.048,-0.024 -0.144,-0.072 -0.048,-0.096 -0.12002,-0.14399 -0.216,-0.144 -0.28802,0.096 -0.48002,0.24001 -0.576,0.432 -0.096,0.19201 -0.19202,0.38401 -0.288,0.576 -0.096,0.19201 -0.24002,0.38401 -0.432,0.576 -0.14402,0.14401 -0.43202,0.21601 -0.864,0.216 -0.33602,10e-6 -0.60002,10e-6 -0.792,0 -0.14402,-0.048 -0.28802,-0.16799 -0.432,-0.36 -0.14402,-0.19199 -0.33602,-0.47999 -0.576,-0.864 -0.19202,-0.38399 -0.52802,-0.91199 -1.008,-1.584 l 0,-3.024 c -0.14401,-2.01598 -0.26401,-3.93598 -0.36,-5.76 -0.096,-1.87198 -0.14401,-3.21598 -0.144,-4.032 l 0,-2.088 c -10e-6,-0.43197 0.024,-1.22397 0.072,-2.376 0.048,-1.19997 0.096,-2.44797 0.144,-3.744 0.096,-1.29597 0.16799,-2.51997 0.216,-3.672 0.048,-1.19996 0.072,-2.03996 0.072,-2.52 -1e-5,-0.95996 0.096,-1.70396 0.288,-2.232 0.19198,-0.57596 0.40798,-1.00796 0.648,-1.296 0.23998,-0.28796 0.43198,-0.45596 0.576,-0.504 0.19198,-0.096 0.26398,-0.14396 0.216,-0.144 0.096,-0.096 0.28798,-0.21596 0.576,-0.36 0.28798,-0.14396 0.43198,-0.21596 0.432,-0.216 l 0.504,-0.504 c -0.91202,-0.19196 -1.75202,-0.55196 -2.52,-1.08 -0.72001,-0.52796 -1.36801,-1.07996 -1.944,-1.656 -0.52801,-0.57595 -0.98401,-1.12795 -1.368,-1.656 -0.33601,-0.52795 -0.55201,-0.91195 -0.648,-1.152 l -0.72,0 c -0.096,5e-5 -0.26401,0.19205 -0.504,0.576 -0.24001,0.33605 -0.48001,0.72005 -0.72,1.152 -0.24001,0.38405 -0.45601,0.72005 -0.648,1.008 -0.14401,0.28805 -0.21601,0.38405 -0.216,0.288 l -1.512,1.512 c -0.67201,0.33604 -1.29601,0.72004 -1.872,1.152 -0.576,0.43204 -1.2,0.81604 -1.872,1.152 l 0,0.432 c 0.912,0.57604 1.67999,1.15204 2.304,1.728 0.62399,0.57604 0.93599,1.60804 0.936,3.096 l 0,4.032 c -10e-6,0.38403 -0.024,1.05603 -0.072,2.016 -10e-6,0.91203 -0.024,1.92003 -0.072,3.024 -10e-6,1.05603 -0.024,2.06402 -0.072,3.024 -10e-6,0.91202 -10e-6,1.56002 0,1.944 0.048,0.19202 0.096,0.50402 0.144,0.936 0.048,0.43202 0.072,0.69602 0.072,0.792 l 0,3.816 c -10e-6,0.38402 -10e-6,1.08002 0,2.088 0.048,0.96001 0.096,1.99201 0.144,3.096 0.048,1.05601 0.072,2.08801 0.072,3.096 0.048,0.96001 0.072,1.65601 0.072,2.088 m 1.224,-47.088 2.808,2.808 0.72,-0.792 c -1e-5,-0.67195 0.33599,-1.29595 1.008,-1.872 0.67199,-0.62395 1.41599,-1.17595 2.232,-1.656 0.81598,-0.52794 1.55998,-0.95994 2.232,-1.296 0.67198,-0.33594 1.00798,-0.55194 1.008,-0.648 l 0.144,-0.144 c -2e-5,0.0481 -0.31202,-0.0959 -0.936,-0.432 -0.57602,-0.33594 -1.24802,-0.71994 -2.016,-1.152 -0.72001,-0.43194 -1.39201,-0.83994 -2.016,-1.224 -0.57601,-0.38394 -0.86401,-0.59994 -0.864,-0.648 -0.096,-0.0479 -0.24001,-0.19194 -0.432,-0.432 -0.14401,-0.28794 -0.26401,-0.45594 -0.36,-0.504 l -0.216,-0.216 c -0.048,6e-5 -0.096,-0.0239 -0.144,-0.072 -0.048,-0.0479 -0.096,-0.0719 -0.144,-0.072 -0.28801,6e-5 -0.64801,0.31206 -1.08,0.936 -0.43201,0.62406 -0.72001,1.10406 -0.864,1.44 -0.38401,0.38406 -0.81601,0.79206 -1.296,1.224 -0.48001,0.43206 -0.98401,0.84006 -1.512,1.224 -0.52801,0.33606 -1.03201,0.62406 -1.512,0.864 -0.48,0.24006 -0.912,0.36006 -1.296,0.36 0.288,0.28806 0.696,0.57605 1.224,0.864 0.52799,0.24005 1.03199,0.45605 1.512,0.648 0.47999,0.19205 0.86399,0.33605 1.152,0.432 0.28799,0.096 0.35999,0.14405 0.216,0.144 l 0.432,0.216"
             style="font-size:72px;font-style:normal;font-variant:normal;font-weight:normal;font-stretch:normal;line-height:125%;letter-spacing:0px;word-spacing:0px;fill:#000000;fill-opacity:1;stroke:none;font-family:Genzsch Et Heyse;-inkscape-font-specification:Genzsch Et Heyse"
             id="path3022"
             inkscape:connector-curvature="0" />
          <path
             d="m 446.88519,433.13283 0.648,0.936 0.144,0 c 0.048,0 0.16799,-0.168 0.36,-0.504 0.23999,-0.384 0.45599,-0.768 0.648,-1.152 0.19199,-0.432 0.33599,-0.792 0.432,-1.08 0.14399,-0.288 0.16799,-0.384 0.072,-0.288 0.38399,-0.384 0.86399,-0.96 1.44,-1.728 0.62399,-0.768 1.19999,-1.53599 1.728,-2.304 0.57598,-0.76799 1.05598,-1.41599 1.44,-1.944 0.43198,-0.57599 0.64798,-0.83999 0.648,-0.792 l 0.36,0.072 c -2e-5,0.19201 -0.024,0.52801 -0.072,1.008 -0.048,0.48001 -0.072,0.79201 -0.072,0.936 -2e-5,0.33601 0.14398,0.84001 0.432,1.512 0.33598,0.624 0.62398,1.128 0.864,1.512 l 0.792,0.792 c 0.43198,0.432 0.88798,0.888 1.368,1.368 0.47998,0.48 0.91198,0.912 1.296,1.296 0.38398,0.384 0.67198,0.696 0.864,0.936 0.23998,0.24 0.31198,0.36 0.216,0.36 l 0.216,0 0.216,-0.216 c 1.15198,-1.632 2.25597,-3.192 3.312,-4.68 1.10397,-1.48799 2.20797,-3.26399 3.312,-5.328 -0.096,-0.096 -0.19203,-0.21599 -0.288,-0.36 -0.096,-0.14399 -0.19203,-0.21599 -0.288,-0.216 -0.048,0.096 -0.16803,0.31201 -0.36,0.648 -0.19203,0.33601 -0.31203,0.55201 -0.36,0.648 l -0.792,0.792 c -0.048,10e-6 -0.14403,0.048 -0.288,0.144 -0.096,0.048 -0.16803,0.072 -0.216,0.072 l -1.224,0 c -0.33603,10e-6 -0.60003,-0.19199 -0.792,-0.576 -0.19203,-0.43199 -0.36002,-0.88799 -0.504,-1.368 -0.096,-0.52799 -0.16802,-1.00799 -0.216,-1.44 -2e-5,-0.47999 -2e-5,-0.76799 0,-0.864 l 0,-6.768 c -2e-5,-0.096 -0.048,-0.38398 -0.144,-0.864 -0.048,-0.52798 -0.072,-0.81598 -0.072,-0.864 l 0,-1.296 -0.288,-0.576 -0.432,-0.432 0.432,-0.216 0.504,-14.04 c -2e-5,-0.67196 0.11998,-1.19996 0.36,-1.584 0.28797,-0.43196 0.59997,-0.76796 0.936,-1.008 0.38397,-0.23996 0.74397,-0.40796 1.08,-0.504 0.33597,-0.096 0.55197,-0.16796 0.648,-0.216 l 0,-0.432 c -3e-5,-0.048 -0.24003,-0.16796 -0.72,-0.36 -0.43203,-0.23996 -0.93603,-0.50396 -1.512,-0.792 -0.57602,-0.28796 -1.12802,-0.52796 -1.656,-0.72 -0.48002,-0.23996 -0.76802,-0.38396 -0.864,-0.432 -0.96002,-0.57596 -1.72802,-1.05596 -2.304,-1.44 -0.57602,-0.43196 -1.08002,-0.79195 -1.512,-1.08 -0.43202,-0.33595 -0.81602,-0.64795 -1.152,-0.936 -0.28802,-0.28795 -0.64802,-0.64795 -1.08,-1.08 l -0.72,0 -2.736,2.52 c -0.24001,0.14404 -0.55201,0.38404 -0.936,0.72 -0.33601,0.28804 -0.69601,0.62404 -1.08,1.008 -0.38401,0.33604 -0.76801,0.64804 -1.152,0.936 -0.38401,0.24004 -0.69601,0.36004 -0.936,0.36 -0.96001,0.96004 -1.80001,1.75204 -2.52,2.376 -0.67201,0.57604 -1.24801,1.27204 -1.728,2.088 -0.48,0.76804 -0.84,1.75204 -1.08,2.952 -0.24,1.20003 -0.36,2.83203 -0.36,4.896 l 0,9.288 c 0,0.096 0,0.40802 0,0.936 0.048,0.48002 0.072,1.00802 0.072,1.584 0.048,0.52802 0.072,1.05602 0.072,1.584 0.048,0.48002 0.072,0.76802 0.072,0.864 l 0,1.728 c 0.288,2.30401 0.456,3.98401 0.504,5.04 0.096,1.00801 0.144,1.70401 0.144,2.088 0.048,0.38401 0.072,0.62401 0.072,0.72 0.048,0.048 0.168,0.26401 0.36,0.648 0,0.192 0.14399,0.504 0.432,0.936 0.33599,0.384 0.71999,0.816 1.152,1.296 0.47999,0.48 0.95999,0.984 1.44,1.512 0.52799,0.48 0.98399,0.936 1.368,1.368 m 2.304,-10.296 c -10e-6,-1.67999 -0.024,-3.74399 -0.072,-6.192 -0.048,-2.44798 -0.096,-5.08798 -0.144,-7.92 -10e-6,-2.83197 -0.024,-5.73597 -0.072,-8.712 -0.048,-3.02396 -0.072,-5.95196 -0.072,-8.784 l 0.36,0 c 0.14399,4e-5 0.31199,0.096 0.504,0.288 0.19199,0.19204 0.38399,0.40804 0.576,0.648 0.23999,0.19204 0.45599,0.38404 0.648,0.576 0.19199,0.14404 0.35999,0.21604 0.504,0.216 0.47999,0.33604 0.91199,0.60004 1.296,0.792 0.38398,0.19204 0.69598,0.43204 0.936,0.72 0.23998,0.28804 0.43198,0.67204 0.576,1.152 0.14398,0.48004 0.21598,1.17604 0.216,2.088 l 0,5.256 c -2e-5,1.15203 -0.048,2.18403 -0.144,3.096 -0.096,0.86403 -0.14402,2.06403 -0.144,3.6 -2e-5,0.72002 -2e-5,1.32002 0,1.8 0.048,0.43202 0.096,0.81602 0.144,1.152 0.048,0.33602 0.072,0.64802 0.072,0.936 0.048,0.28802 0.072,0.62402 0.072,1.008 l 0,6.768 c -0.14402,0.33601 -0.33602,0.79201 -0.576,1.368 -0.24002,0.57601 -0.36002,0.96001 -0.36,1.152 l -0.792,0.72 c -0.048,1e-5 -0.14401,0.048 -0.288,0.144 -0.096,0.048 -0.16801,0.072 -0.216,0.072 l -1.512,0 -0.432,-0.216 c -0.33601,-0.33599 -0.60001,-0.59999 -0.792,-0.792 -0.19201,-0.23999 -0.28801,-0.55199 -0.288,-0.936"
             style="font-size:72px;font-style:normal;font-variant:normal;font-weight:normal;font-stretch:normal;line-height:125%;letter-spacing:0px;word-spacing:0px;fill:#000000;fill-opacity:1;stroke:none;font-family:Genzsch Et Heyse;-inkscape-font-specification:Genzsch Et Heyse"
             id="path3024"
             inkscape:connector-curvature="0" />
        </g>
      </g>
      <g
         transform="translate(20.128035,67.285714)"
         id="text3076"
         style="font-size:40px;font-style:normal;font-variant:normal;font-weight:normal;font-stretch:normal;line-height:125%;letter-spacing:0px;word-spacing:0px;fill:#000000;fill-opacity:1;stroke:none;font-family:Genzsch Et Heyse Alternate;-inkscape-font-specification:Genzsch Et Heyse Alternate">
        <path
           inkscape:connector-curvature="0"
           id="path3081"
           d="m 234.16,285.50504 0.12,0 c 0.23999,0 0.50665,0.17333 0.8,0.52 0.29332,0.32 0.57332,0.70666 0.84,1.16 0.29332,0.42666 0.53332,0.84 0.72,1.24 0.21332,0.4 0.35998,0.68 0.44,0.84 l 0.2,0.12 0.48,-0.84 c 0.18665,-0.26667 0.35998,-0.48 0.52,-0.64 0.15998,-0.18667 0.33331,-0.37334 0.52,-0.56 0.18665,-0.21334 0.41331,-0.44 0.68,-0.68 0.29331,-0.26667 0.65331,-0.61333 1.08,-1.04 0.66665,-0.66667 1.26664,-1.28 1.8,-1.84 0.55998,-0.58666 1.07998,-1.24 1.56,-1.96 l 0,-0.12 c -0.0267,0 -0.0534,-0.0133 -0.08,-0.04 -0.0267,-0.0533 -0.0534,-0.08 -0.08,-0.08 l -0.12,0 c -0.16002,0 -0.34669,0.08 -0.56,0.24 -0.21336,0.16 -0.42669,0.33334 -0.64,0.52 -0.18669,0.18667 -0.37336,0.36 -0.56,0.52 -0.16002,0.16 -0.28002,0.24 -0.36,0.24 -0.0534,0.0267 -0.14669,0.0533 -0.28,0.08 -0.13335,0.0267 -0.21335,0.0533 -0.24,0.08 l -0.2,0 c -0.45335,-0.16 -0.88002,-0.34666 -1.28,-0.56 -0.40002,-0.24 -0.77335,-0.48 -1.12,-0.72 -0.32002,-0.24 -0.61335,-0.46666 -0.88,-0.68 -0.24002,-0.21333 -0.44002,-0.36 -0.6,-0.44 l -0.12,-0.28 c -2e-5,0 0.0533,-0.0667 0.16,-0.2 0.10665,-0.13333 0.18665,-0.25333 0.24,-0.36 l 0.32,-0.28 c 0.29332,-0.10666 0.55998,-0.29333 0.8,-0.56 0.23998,-0.26666 0.53331,-0.39999 0.88,-0.4 l 0.96,0 c 0.0266,1e-5 0.0933,0.0267 0.2,0.08 0.10665,0.0267 0.17331,0.04 0.2,0.04 l 0,0.04 c -2e-5,0.13334 -0.0267,0.25334 -0.08,0.36 -0.0533,0.08 -0.08,0.18667 -0.08,0.32 l 0,0.12 c 0.08,0.18667 0.14665,0.34667 0.2,0.48 0.0533,0.10667 0.22665,0.22667 0.52,0.36 0.37331,0 0.62664,-0.12 0.76,-0.36 0.13331,-0.26666 0.19998,-0.50666 0.2,-0.72 -2e-5,-0.0533 -0.0134,-0.14666 -0.04,-0.28 -0.0267,-0.15999 -0.0534,-0.26666 -0.08,-0.32 l -0.44,-0.44 c -0.0534,-0.0533 -0.17335,-0.11999 -0.36,-0.2 -0.18669,-0.08 -0.30669,-0.14666 -0.36,-0.2 l -0.12,0 c -0.0267,10e-6 -0.0934,10e-6 -0.2,0 -0.10669,-0.0267 -0.22669,-0.04 -0.36,-0.04 -0.10669,-0.0267 -0.21335,-0.04 -0.32,-0.04 -0.10669,-0.0267 -0.17335,-0.04 -0.2,-0.04 -0.21335,10e-6 -0.45335,0.0533 -0.72,0.16 -0.26669,0.10667 -0.53335,0.24001 -0.8,0.4 -0.26668,0.13334 -0.50668,0.28001 -0.72,0.44 -0.18668,0.13334 -0.33335,0.25334 -0.44,0.36 l -0.92,0.84 -0.04,0 c -0.26668,0 -0.60002,-0.0667 -1,-0.2 -0.37335,-0.15999 -0.73335,-0.31999 -1.08,-0.48 -0.34668,-0.18666 -0.64001,-0.33333 -0.88,-0.44 -0.24001,-0.13333 -0.33335,-0.17333 -0.28,-0.12 -0.24001,1e-5 -0.57335,-0.04 -1,-0.12 -0.40001,-0.08 -0.70668,-0.11999 -0.92,-0.12 l -2.96,0 c -0.13334,1e-5 -0.37334,0.0267 -0.72,0.08 -0.34667,0.0533 -0.56001,0.10667 -0.64,0.16 l -1.44,0.72 c -0.53334,0.18667 -1.01334,0.48 -1.44,0.88 -0.4,0.4 -0.74667,0.81334 -1.04,1.24 -0.26667,0.42667 -0.48,0.81334 -0.64,1.16 -0.13334,0.32 -0.2,0.52 -0.2,0.6 -0.0267,0.0533 -0.0667,0.21333 -0.12,0.48 -0.0267,0.26667 -0.04,0.45333 -0.04,0.56 0,0.82667 0.10666,1.49333 0.32,2 0.24,0.50666 0.50666,0.90666 0.8,1.2 0.29333,0.26666 0.57333,0.46666 0.84,0.6 0.29333,0.10666 0.48,0.17333 0.56,0.2 0.16,0.16 0.34666,0.29333 0.56,0.4 0.24,0.08 0.46666,0.14666 0.68,0.2 0.21333,0.0533 0.38666,0.0933 0.52,0.12 0.15999,0 0.22666,0 0.2,0 l 1.92,0 c 0.47999,0 0.94666,-0.0667 1.4,-0.2 0.45332,-0.16 0.85332,-0.33334 1.2,-0.52 0.37332,-0.21334 0.69332,-0.41334 0.96,-0.6 0.26665,-0.18667 0.43999,-0.30667 0.52,-0.36 0.0533,-0.0267 0.14665,-0.0933 0.28,-0.2 0.13332,-0.10667 0.22665,-0.17334 0.28,-0.2 l 0.28,-0.32 c 0.0533,-0.08 0.13332,-0.2 0.24,-0.36 0.13332,-0.16 0.26665,-0.32 0.4,-0.48 0.13332,-0.16 0.23999,-0.29333 0.32,-0.4 0.10665,-0.10667 0.14665,-0.14667 0.12,-0.12 l 0.2,0 m -11.48,-0.12 0,-0.44 c 0,-0.66667 0.18666,-1.2 0.56,-1.6 0.4,-0.4 0.82666,-0.70666 1.28,-0.92 0.45333,-0.24 0.85333,-0.4 1.2,-0.48 0.34666,-0.08 0.49333,-0.12 0.44,-0.12 0.13333,-0.0267 0.38666,-0.0533 0.76,-0.08 0.39999,-0.0267 0.66666,-0.04 0.8,-0.04 0.29333,0 0.65332,0.0667 1.08,0.2 0.42666,0.13334 0.90666,0.30667 1.44,0.52 0.34666,0.24 0.66666,0.42667 0.96,0.56 0.29332,0.10667 0.55999,0.22667 0.8,0.36 0.23999,0.13333 0.46665,0.29333 0.68,0.48 0.21332,0.16 0.42665,0.4 0.64,0.72 l 0,0.24 c -0.50668,0.48 -0.96001,0.96 -1.36,1.44 -0.40001,0.48 -0.80001,0.90666 -1.2,1.28 -0.40001,0.34666 -0.81334,0.62666 -1.24,0.84 -0.40001,0.18666 -0.85334,0.25333 -1.36,0.2 l -2.4,0 c -0.34667,0 -0.56001,-0.08 -0.64,-0.24 -0.08,-0.18667 -0.18667,-0.28 -0.32,-0.28 l -0.56,0 c -0.16,0 -0.30667,-0.0667 -0.44,-0.2 -0.10667,-0.13334 -0.21334,-0.28 -0.32,-0.44 -0.10667,-0.16 -0.2,-0.30667 -0.28,-0.44 -0.08,-0.13334 -0.14667,-0.2 -0.2,-0.2 -0.0533,-0.0533 -0.12,-0.2 -0.2,-0.44 -0.08,-0.24 -0.12,-0.42667 -0.12,-0.56 l 0,-0.36 m 3.6,-11.36 0,0.44 c -1e-5,0.56001 0.13333,1.01334 0.4,1.36 0.29333,0.34668 0.59999,0.61334 0.92,0.8 0.31999,0.18667 0.59999,0.32001 0.84,0.4 0.23999,0.0533 0.31999,0.08 0.24,0.08 l 1.28,0.4 c 0.0533,0.0533 0.18666,0.0933 0.4,0.12 0.23999,10e-6 0.38666,0.0267 0.44,0.08 l 1.8,0 c 0.10665,-0.0533 0.29332,-0.10666 0.56,-0.16 0.26665,-0.0533 0.51999,-0.0933 0.76,-0.12 0.23999,-0.0533 0.43999,-0.0933 0.6,-0.12 0.15999,-0.0267 0.21332,-0.04 0.16,-0.04 l 0.84,-0.4 c 0.0266,-0.0267 0.08,-0.08 0.16,-0.16 0.10665,-0.08 0.19998,-0.15999 0.28,-0.24 0.10665,-0.08 0.19998,-0.14666 0.28,-0.2 0.10665,-0.08 0.18665,-0.11999 0.24,-0.12 l 0.2,0 c 0.50665,-0.50666 0.86665,-0.90666 1.08,-1.2 0.21332,-0.29332 0.35998,-0.54666 0.44,-0.76 0.08,-0.21332 0.13331,-0.42666 0.16,-0.64 0.0266,-0.21332 0.10665,-0.50665 0.24,-0.88 l 0,-1.04 c -2e-5,-0.47999 -0.0667,-0.93332 -0.2,-1.36 -0.13335,-0.42665 -0.29335,-0.79998 -0.48,-1.12 -0.16002,-0.31998 -0.33335,-0.57332 -0.52,-0.76 -0.16002,-0.21332 -0.26668,-0.33332 -0.32,-0.36 -0.42668,-0.42665 -0.78668,-0.74665 -1.08,-0.96 -0.26668,-0.21332 -0.54668,-0.38665 -0.84,-0.52 -0.26668,-0.15998 -0.57335,-0.30665 -0.92,-0.44 -0.32001,-0.13331 -0.73335,-0.33331 -1.24,-0.6 -0.24001,2e-5 -0.44001,-0.0933 -0.6,-0.28 -0.13335,-0.21331 -0.24001,-0.42665 -0.32,-0.64 -0.08,-0.21331 -0.13335,-0.39998 -0.16,-0.56 -0.0267,-0.15998 -0.04,-0.19998 -0.04,-0.12 -1e-5,-0.45331 0.14665,-0.75998 0.44,-0.92 0.31999,-0.15998 0.65332,-0.33331 1,-0.52 l 0.4,0 c 0.15999,2e-5 0.30665,0.0934 0.44,0.28 0.15999,0.16002 0.33332,0.24002 0.52,0.24 0.29332,0.16002 0.65332,0.32002 1.08,0.48 0.45332,0.16002 0.75998,0.24002 0.92,0.24 l 1.8,0 c 0.74665,2e-5 1.37331,-0.11998 1.88,-0.36 0.53331,-0.26664 0.90665,-0.50664 1.12,-0.72 0.21331,-0.21331 0.33331,-0.33331 0.36,-0.36 0.15998,-0.15998 0.33331,-0.35998 0.52,-0.6 0.21331,-0.23998 0.39998,-0.49331 0.56,-0.76 0.15998,-0.29331 0.29331,-0.58664 0.4,-0.88 0.13331,-0.29331 0.19998,-0.55997 0.2,-0.8 l 0,-1.28 c -0.0534,3e-5 -0.0934,-0.08 -0.12,-0.24 -0.0267,-0.18664 -0.0934,-0.27997 -0.2,-0.28 l -0.12,0 c -0.18669,0.53336 -0.34669,0.92003 -0.48,1.16 -0.13336,0.24003 -0.24002,0.41336 -0.32,0.52 -0.08,0.10669 -0.14669,0.16003 -0.2,0.16 -0.0534,-0.0266 -0.0934,-0.04 -0.12,-0.04 -0.0534,0.0267 -0.14669,0.0667 -0.28,0.12 -0.13335,0.0267 -0.22669,0.04 -0.28,0.04 l -0.64,0 c -0.48002,3e-5 -0.96002,-0.0933 -1.44,-0.28 -0.45335,-0.21331 -0.88002,-0.43997 -1.28,-0.68 -0.37335,-0.26664 -0.68002,-0.49331 -0.92,-0.68 -0.21335,-0.21331 -0.32002,-0.31997 -0.32,-0.32 -2e-5,3e-5 -0.18668,-0.10664 -0.56,-0.32 -0.34668,-0.23997 -0.77335,-0.49331 -1.28,-0.76 -0.48001,-0.2933 -0.98668,-0.55997 -1.52,-0.8 -0.53335,-0.23997 -0.96001,-0.35997 -1.28,-0.36 -0.10668,-0.0266 -0.25335,-0.0533 -0.44,-0.08 -0.16001,-0.0533 -0.33334,-0.0933 -0.52,-0.12 -0.16001,-0.0266 -0.32001,-0.04 -0.48,-0.04 -0.13334,-0.0266 -0.21334,-0.04 -0.24,-0.04 l -2.52,0 c -0.26667,3e-5 -0.61334,0.0267 -1.04,0.08 -0.40001,0.0534 -0.65334,0.12003 -0.76,0.2 l -0.12,0.12 c -0.64001,3e-5 -1.21334,0.13336 -1.72,0.4 -0.50667,0.2667 -0.94667,0.57336 -1.32,0.92 -0.37334,0.32003 -0.66667,0.64003 -0.88,0.96 -0.21334,0.29336 -0.34667,0.48003 -0.4,0.56 -0.16,0.16003 -0.30667,0.38669 -0.44,0.68 -0.13333,0.26669 -0.25333,0.54669 -0.36,0.84 -0.08,0.29336 -0.16,0.58669 -0.24,0.88 -0.0533,0.26669 -0.08,0.48002 -0.08,0.64 l 0,0.12 c 0,0.0534 0.0133,0.25336 0.04,0.6 0.0533,0.32002 0.08,0.50669 0.08,0.56 l 0,0.52 c 0,0.34669 0.10667,0.70669 0.32,1.08 0.21333,0.37335 0.45333,0.70669 0.72,1 0.26666,0.26669 0.50666,0.48002 0.72,0.64 0.21333,0.16002 0.32,0.20002 0.32,0.12 l 0.72,0.24 c 0.4,0.16002 0.78666,0.25335 1.16,0.28 0.37333,2e-5 0.69333,0.0134 0.96,0.04 0.29333,0.0267 0.51999,0.0933 0.68,0.2 0.18666,0.10668 0.27999,0.30668 0.28,0.6 l 0,0.44 c -1e-5,0.37335 -0.14667,0.68002 -0.44,0.92 -0.26667,0.21335 -0.40001,0.32002 -0.4,0.32 l -0.96,0 c -0.37334,-0.18665 -0.66667,-0.43998 -0.88,-0.76 -0.21334,-0.31998 -0.34667,-0.47998 -0.4,-0.48 l -0.28,0 c 0,2e-5 -0.0267,0.04 -0.08,0.12 -0.0267,0.0533 -0.04,0.10668 -0.04,0.16 l 0,0.24 c 0,0.29335 0.08,0.53335 0.24,0.72 0.18666,0.16002 0.37333,0.28002 0.56,0.36 0.21333,0.08 0.4,0.13335 0.56,0.16 0.18666,0.0267 0.29333,0.04 0.32,0.04 l 0.64,0 c 0.0533,2e-5 0.14666,-0.0133 0.28,-0.04 0.15999,-0.0533 0.26666,-0.08 0.32,-0.08 l 0.12,-0.12 c 0.0533,-0.0533 0.11999,-0.11998 0.2,-0.2 0.10666,-0.08 0.18666,-0.11998 0.24,-0.12 l 0.72,-0.72 c 0.13333,-0.13332 0.21333,-0.33332 0.24,-0.6 0.0267,-0.29332 0.04,-0.53332 0.04,-0.72 -1e-5,-0.29331 -0.0667,-0.61331 -0.2,-0.96 -0.10667,-0.37331 -0.29334,-0.71998 -0.56,-1.04 -0.24001,-0.31998 -0.56001,-0.58665 -0.96,-0.8 -0.40001,-0.21331 -0.86667,-0.31998 -1.4,-0.32 -0.45334,-0.13331 -0.89334,-0.23998 -1.32,-0.32 -0.42667,-0.08 -0.82667,-0.21331 -1.2,-0.4 l -0.4,-0.84 c 0,-0.0266 -0.0267,-0.0933 -0.08,-0.2 -0.0267,-0.10664 -0.04,-0.17331 -0.04,-0.2 l 0,-0.56 c 0,-0.66664 0.12,-1.18664 0.36,-1.56 0.24,-0.39997 0.54666,-0.70664 0.92,-0.92 0.4,-0.21331 0.85333,-0.37331 1.36,-0.48 0.50666,-0.10664 1.02666,-0.19997 1.56,-0.28 l 0.96,0 c 0.18666,3e-5 0.42666,0.08 0.72,0.24 0.29333,0.13336 0.50666,0.20003 0.64,0.2 l 0.84,0.4 c 0.23999,0.13336 0.57332,0.33336 1,0.6 0.45332,0.24003 0.89332,0.52003 1.32,0.84 0.45332,0.32002 0.83999,0.64002 1.16,0.96 0.31999,0.29336 0.47999,0.56002 0.48,0.8 -1e-5,0.0534 -0.10668,0.13336 -0.32,0.24 -0.18668,0.08 -0.41335,0.17336 -0.68,0.28 -0.24001,0.08 -0.48001,0.16002 -0.72,0.24 -0.21334,0.08 -0.33334,0.16002 -0.36,0.24 -0.40001,0.26669 -0.70668,0.54669 -0.92,0.84 -0.18668,0.26669 -0.33334,0.54669 -0.44,0.84 -0.10668,0.29335 -0.20001,0.57335 -0.28,0.84 -0.0533,0.26669 -0.13334,0.50669 -0.24,0.72 l 0,0.44 c 0.23999,0.82668 0.43999,1.45335 0.6,1.88 0.18666,0.42668 0.37332,0.77335 0.56,1.04 0.21332,0.24002 0.45332,0.45335 0.72,0.64 0.26666,0.18668 0.62666,0.44001 1.08,0.76 0.26665,0.29335 0.54665,0.53335 0.84,0.72 0.29332,0.16001 0.55999,0.33335 0.8,0.52 0.26665,0.18668 0.49332,0.41335 0.68,0.68 0.21332,0.24001 0.37332,0.57334 0.48,1 l 0,0.36 c -1e-5,0.72001 -0.14668,1.28001 -0.44,1.68 -0.29335,0.37334 -0.60001,0.65334 -0.92,0.84 -0.32001,0.16001 -0.60001,0.25334 -0.84,0.28 -0.24001,0.0267 -0.30668,0.04 -0.2,0.04 -0.0267,1e-5 -0.17335,0.0133 -0.44,0.04 -0.24001,1e-5 -0.42668,1e-5 -0.56,0 -0.42668,1e-5 -0.88001,-0.0267 -1.36,-0.08 -0.48001,-0.08 -0.89334,-0.29333 -1.24,-0.64 l -0.72,-0.72 c -0.08,-0.08 -0.17334,-0.19999 -0.28,-0.36 -0.08,-0.15999 -0.12001,-0.31999 -0.12,-0.48 l 0,-0.4 c -1e-5,-0.23999 0.11999,-0.39999 0.36,-0.48 0.23999,-0.08 0.45333,-0.11999 0.64,-0.12 0.18666,10e-6 0.30666,0.0267 0.36,0.08 0.08,0.0533 0.14666,0.13334 0.2,0.24 0.0533,0.10668 0.10666,0.22668 0.16,0.36 0.08,0.13334 0.19999,0.28001 0.36,0.44 -1e-5,0.0533 0.04,0.12001 0.12,0.2 0.10666,0.0533 0.21332,0.10668 0.32,0.16 0.10666,0.0533 0.21332,0.10668 0.32,0.16 0.10666,0.0267 0.17332,0.0533 0.2,0.08 l 1.44,0 c -10e-6,1e-5 0.0267,-0.0133 0.08,-0.04 0.08,-0.0533 0.13332,-0.0933 0.16,-0.12 l 0.44,-0.44 c 0.0267,10e-6 0.0533,-0.04 0.08,-0.12 0.0266,-0.08 0.04,-0.11999 0.04,-0.12 -1e-5,-0.0533 -0.04,-0.0933 -0.12,-0.12 -0.0533,-0.0267 -0.0933,-0.04 -0.12,-0.04 -0.16001,0.13334 -0.28001,0.25334 -0.36,0.36 -0.0533,0.08 -0.21335,0.12001 -0.48,0.12 -0.40001,10e-6 -0.70668,-0.15999 -0.92,-0.48 -0.21334,-0.34666 -0.40001,-0.71999 -0.56,-1.12 -0.16001,-0.42665 -0.34668,-0.79999 -0.56,-1.12 -0.21334,-0.34665 -0.52001,-0.51999 -0.92,-0.52 l -0.72,0 c -0.0533,10e-6 -0.14667,0.0267 -0.28,0.08 -0.13334,0.0267 -0.21334,0.04 -0.24,0.04 l -0.72,0.72 c -0.16001,0.13335 -0.25334,0.28001 -0.28,0.44 -1e-5,0.16001 -0.0533,0.33334 -0.16,0.52 l 0,0.4" />
        <path
           inkscape:connector-curvature="0"
           id="path3083"
           d="m 245.13125,287.10504 0,0.96 c 0,0.10666 0.04,0.26666 0.12,0.48 0.10667,0.21333 0.21333,0.42666 0.32,0.64 0.13333,0.18666 0.25333,0.34666 0.36,0.48 0.10667,0.16 0.16,0.22666 0.16,0.2 l 0.6,0 0.12,-0.24 0,-0.04 c -0.10667,-0.13334 -0.24,-0.26667 -0.4,-0.4 -0.13334,-0.16 -0.2,-0.34667 -0.2,-0.56 l 0.04,-0.12 c 0,-0.18667 0.04,-0.32 0.12,-0.4 0.08,-0.08 0.18666,-0.18667 0.32,-0.32 l 0.64,-0.12 0.44,0 c 0.48,0 0.84,0.10666 1.08,0.32 0.24,0.21333 0.41333,0.45333 0.52,0.72 0.10666,0.26666 0.17333,0.50666 0.2,0.72 0.0267,0.21333 0.08,0.32 0.16,0.32 l 0.24,0 c 0.0267,0 0.10666,-0.12 0.24,-0.36 0.13333,-0.24 0.27999,-0.50667 0.44,-0.8 0.18666,-0.29334 0.34666,-0.56 0.48,-0.8 0.13333,-0.26667 0.21333,-0.41334 0.24,-0.44 0.18666,0 0.43999,-0.2 0.76,-0.6 0.31999,-0.4 0.63999,-0.82667 0.96,-1.28 0.31999,-0.48 0.58666,-0.89333 0.8,-1.24 0.21332,-0.37333 0.30666,-0.53333 0.28,-0.48 -10e-6,-0.21333 0.0267,-0.42667 0.08,-0.64 0.08,-0.21333 0.11999,-0.44 0.12,-0.68 l -0.2,0.08 c -0.13334,0.13334 -0.32001,0.25334 -0.56,0.36 -0.24001,0.08 -0.42668,0.2 -0.56,0.36 l -1.4,0 c -0.0267,-0.0533 -0.0933,-0.08 -0.2,-0.08 -0.10667,-0.0267 -0.17334,-0.0667 -0.2,-0.12 l -0.12,-0.16 0,-0.08 c -1e-5,0.0267 0.10666,-0.04 0.32,-0.2 0.23999,-0.18666 0.51999,-0.41333 0.84,-0.68 0.31999,-0.26666 0.65332,-0.53333 1,-0.8 0.34666,-0.29333 0.63999,-0.53333 0.88,-0.72 l 0.12,-0.12 c 0.55999,-0.55999 0.97332,-1.19999 1.24,-1.92 0.26666,-0.71999 0.43999,-1.38666 0.52,-2 0.10666,-0.63999 0.14665,-1.15999 0.12,-1.56 -10e-6,-0.39999 -10e-6,-0.54666 0,-0.44 -10e-6,-0.42666 -0.0533,-0.79999 -0.16,-1.12 -0.10668,-0.34665 -0.16001,-0.73332 -0.16,-1.16 l 0,-0.6 c -1e-5,-0.0266 -0.0267,-0.10665 -0.08,-0.24 -0.0533,-0.13332 -0.10668,-0.27999 -0.16,-0.44 -0.0267,-0.15999 -0.0667,-0.30665 -0.12,-0.44 -0.0267,-0.13332 -0.04,-0.22665 -0.04,-0.28 l 0,-0.52 c -10e-6,-0.0533 0.0133,-0.11998 0.04,-0.2 0.0533,-0.10665 0.08,-0.18665 0.08,-0.24 l 0.36,-0.28 0.04,0 c 0.39999,0.18668 0.79999,0.36002 1.2,0.52 0.39999,0.13335 0.83999,0.20002 1.32,0.2 l 2.36,0 c 0.31998,2e-5 0.62665,0.21335 0.92,0.64 0.31998,0.40001 0.59998,0.84001 0.84,1.32 0.26665,0.45335 0.46665,0.86668 0.6,1.24 0.13331,0.34668 0.18665,0.48001 0.16,0.4 0.39998,0.40001 0.71998,0.90668 0.96,1.52 0.23998,0.61334 0.41331,1.21334 0.52,1.8 0.13331,0.58667 0.21331,1.10667 0.24,1.56 0.0533,0.42667 0.08,0.65334 0.08,0.68 0.0267,0.13334 0.0533,0.32001 0.08,0.56 0.0533,0.24001 0.08,0.37334 0.08,0.4 l 0,2.84 c -2e-5,0.48 -0.08,0.94667 -0.24,1.4 -0.13335,0.42667 -0.29335,0.82667 -0.48,1.2 -0.18669,0.34667 -0.37335,0.66667 -0.56,0.96 -0.18669,0.26667 -0.32002,0.48 -0.4,0.64 l -0.84,0.84 c -0.13335,0 -0.34668,0.10666 -0.64,0.32 -0.26668,0.21333 -0.46668,0.32 -0.6,0.32 l -1.92,0.44 -0.32,0 c -0.69335,0 -1.26668,-0.14667 -1.72,-0.44 -0.45335,-0.32 -0.76001,-0.61334 -0.92,-0.88 -0.16001,-0.26667 -0.25335,-0.42667 -0.28,-0.48 -10e-6,0 -0.04,-0.12 -0.12,-0.36 -0.08,-0.26667 -0.14668,-0.42667 -0.2,-0.48 l 0,-0.72 c 0.0267,-0.0267 0.11999,-0.14667 0.28,-0.36 0.18665,-0.21333 0.37332,-0.42667 0.56,-0.64 0.21332,-0.21333 0.31999,-0.30667 0.32,-0.28 l 0.28,0 c -10e-6,0 0.08,0.0533 0.24,0.16 0.18665,0.08 0.38665,0.18667 0.6,0.32 0.21332,0.13333 0.42665,0.26667 0.64,0.4 0.23999,0.13333 0.42665,0.22667 0.56,0.28 0.18665,0.08 0.35998,0.13333 0.52,0.16 0.18665,0 0.37332,0 0.56,0 0.21332,0 0.49332,-0.04 0.84,-0.12 0.37332,-0.08 0.63998,-0.2 0.8,-0.36 l 0.64,-0.64 c 0.34665,-0.34667 0.57331,-0.72 0.68,-1.12 0.10665,-0.4 0.15998,-0.69333 0.16,-0.88 l 0,-0.4 c -2e-5,-0.53333 -0.08,-0.97333 -0.24,-1.32 -0.13335,-0.34666 -0.30669,-0.62666 -0.52,-0.84 -0.18668,-0.21333 -0.38668,-0.35999 -0.6,-0.44 -0.18668,-0.10666 -0.33335,-0.15999 -0.44,-0.16 l 0,0.28 0.84,0.8 0,0.84 c -2e-5,0.13334 -0.0533,0.24 -0.16,0.32 -0.10668,0.0533 -0.22668,0.08 -0.36,0.08 l -0.44,0 c -0.08,0 -0.26668,-0.0667 -0.56,-0.2 -0.26668,-0.16 -0.54668,-0.32 -0.84,-0.48 -0.29335,-0.18666 -0.56002,-0.33333 -0.8,-0.44 -0.21335,-0.13333 -0.32001,-0.17333 -0.32,-0.12 l -1.24,0 c -0.21335,0 -0.38668,0.0533 -0.52,0.16 -0.13335,0.08 -0.25335,0.17334 -0.36,0.28 -0.08,0.10667 -0.17335,0.2 -0.28,0.28 -0.08,0.08 -0.16001,0.12 -0.24,0.12 l -0.72,0.72 c -0.13334,0.13334 -0.25334,0.32 -0.36,0.56 -0.10668,0.21334 -0.20001,0.44 -0.28,0.68 -0.0533,0.24 -0.10668,0.45333 -0.16,0.64 -0.0267,0.18667 -0.04,0.29333 -0.04,0.32 l 0,1.28 c -1e-5,0.48 0.04,0.88 0.12,1.2 0.10666,0.29333 0.21332,0.53333 0.32,0.72 0.13332,0.18666 0.23999,0.33333 0.32,0.44 0.08,0.10666 0.10666,0.2 0.08,0.28 0.15999,0.34666 0.38665,0.62666 0.68,0.84 0.29332,0.21333 0.58665,0.38666 0.88,0.52 0.31999,0.10666 0.59999,0.18666 0.84,0.24 0.23999,0.0267 0.38665,0.0533 0.44,0.08 0.18665,0.08 0.39999,0.12 0.64,0.12 0.23998,0.0267 0.58665,0.04 1.04,0.04 0.26665,0 0.49332,0 0.68,0 0.21332,0 0.42665,-0.0133 0.64,-0.04 0.21332,-0.0267 0.43998,-0.08 0.68,-0.16 0.23998,-0.08 0.53331,-0.21334 0.88,-0.4 0.18665,0 0.42665,-0.0933 0.72,-0.28 0.31998,-0.21334 0.62665,-0.45334 0.92,-0.72 0.31998,-0.29334 0.59998,-0.57334 0.84,-0.84 0.26665,-0.29334 0.45331,-0.52 0.56,-0.68 0.26664,-0.26667 0.54664,-0.68 0.84,-1.24 0.31998,-0.58667 0.61331,-1.17333 0.88,-1.76 0.26664,-0.61333 0.47998,-1.18666 0.64,-1.72 0.18664,-0.53333 0.27998,-0.89333 0.28,-1.08 0.18664,-0.37333 0.29331,-0.95999 0.32,-1.76 0.0533,-0.79999 0.14664,-1.65333 0.28,-2.56 l 0,-0.2 c -0.08,-0.66666 -0.14669,-1.18666 -0.2,-1.56 -0.0267,-0.37332 -0.0667,-0.67999 -0.12,-0.92 -0.0267,-0.26666 -0.0667,-0.50665 -0.12,-0.72 -0.0534,-0.23999 -0.10669,-0.54665 -0.16,-0.92 l 0,-0.44 c -2e-5,-0.61332 -0.12002,-1.15999 -0.36,-1.64 -0.21336,-0.47998 -0.50669,-1.05332 -0.88,-1.72 -2e-5,-0.08 -0.0534,-0.19998 -0.16,-0.36 -0.10669,-0.15998 -0.24002,-0.34665 -0.4,-0.56 -0.16002,-0.21332 -0.33336,-0.43998 -0.52,-0.68 -0.16002,-0.23998 -0.30669,-0.47998 -0.44,-0.72 l 0,-0.44 c -2e-5,-0.31998 0.0933,-0.63998 0.28,-0.96 0.18664,-0.34665 0.27998,-0.67998 0.28,-1 l 0,-2.24 c -2e-5,-0.69331 -0.17336,-1.33331 -0.52,-1.92 -0.34669,-0.58664 -0.74669,-1.10664 -1.2,-1.56 -0.42669,-0.45331 -0.82669,-0.82664 -1.2,-1.12 -0.37335,-0.2933 -0.60002,-0.47997 -0.68,-0.56 -0.72002,-0.4533 -1.42668,-0.78664 -2.12,-1 -0.66668,-0.2133 -1.26668,-0.35997 -1.8,-0.44 -0.50668,-0.08 -0.90668,-0.11997 -1.2,-0.12 -0.26668,3e-5 -0.36001,3e-5 -0.28,0 -0.10668,3e-5 -0.37335,0.0267 -0.8,0.08 -0.40001,0.0267 -0.84001,0.08 -1.32,0.16 -0.45334,0.0534 -0.86668,0.1067 -1.24,0.16 -0.37334,0.0267 -0.57334,0.04 -0.6,0.04 l -0.24,0 -1.28,0.4 c -0.98667,0.37336 -1.93334,0.92003 -2.84,1.64 -0.88,0.72003 -1.61334,1.68003 -2.2,2.88 0,0.21336 -0.0933,0.46669 -0.28,0.76 -0.16,0.29336 -0.24,0.53336 -0.24,0.72 0,0.08 -0.0267,0.21336 -0.08,0.4 -0.0533,0.18669 -0.10667,0.38669 -0.16,0.6 -0.0533,0.21336 -0.10667,0.41336 -0.16,0.6 -0.0267,0.18669 -0.04,0.32002 -0.04,0.4 l 0,1.8 c 0,0.32002 0.04,0.65335 0.12,1 0.10666,0.34669 0.21333,0.66668 0.32,0.96 0.10666,0.29335 0.21333,0.56002 0.32,0.8 0.10666,0.21335 0.17333,0.34668 0.2,0.4 l 0.44,0.84 c 0.58666,1.22668 1.09333,2.12001 1.52,2.68 0.42666,0.53335 0.79999,0.93335 1.12,1.2 0.31999,0.24001 0.59999,0.44001 0.84,0.6 0.23999,0.16001 0.47999,0.45334 0.72,0.88 l 0.12,0.24 c 0.29333,0.53334 0.46666,1.02668 0.52,1.48 0.0533,0.45334 0.08,0.92001 0.08,1.4 -1e-5,0.53334 -0.04,1.00001 -0.12,1.4 -0.0533,0.40001 -0.14667,0.74667 -0.28,1.04 -0.10667,0.29334 -0.25334,0.56 -0.44,0.8 -0.16001,0.24 -0.36001,0.48 -0.6,0.72 l -0.12,0.12 c -0.48001,0.37334 -0.98667,0.64 -1.52,0.8 -0.50667,0.13334 -0.98667,0.24 -1.44,0.32 -0.42667,0.08 -0.78667,0.16 -1.08,0.24 -0.26667,0.08 -0.4,0.24 -0.4,0.48 -0.45334,0.21333 -0.81333,0.58667 -1.08,1.12 -0.24,0.50667 -0.4,0.96 -0.48,1.36 l 0,1 m 5.88,-8.44 0,0.76 c -0.13334,0.13334 -0.28001,0.36001 -0.44,0.68 -0.16001,0.32 -0.30667,0.62667 -0.44,0.92 -0.10667,0.29334 -0.20001,0.54667 -0.28,0.76 -0.08,0.18667 -0.12001,0.24 -0.12,0.16 -0.0267,0 -0.04,0.04 -0.04,0.12 -1e-5,0.0533 -1e-5,0.0933 0,0.12 0.0267,0 0.0933,-0.0133 0.2,-0.04 0.13333,-0.0533 0.22666,-0.08 0.28,-0.08 l 0.4,-0.4 c -1e-5,-0.10666 0.04,-0.25333 0.12,-0.44 0.10666,-0.21333 0.21333,-0.42666 0.32,-0.64 0.13333,-0.24 0.25333,-0.45333 0.36,-0.64 0.10666,-0.21333 0.15999,-0.38666 0.16,-0.52 l 0,-1.96 c -1e-5,-0.21333 -0.10667,-0.49333 -0.32,-0.84 -0.18667,-0.37332 -0.36001,-0.69332 -0.52,-0.96 l -0.12,-0.12 c -0.24001,-0.13332 -0.46667,-0.27999 -0.68,-0.44 -0.21334,-0.18666 -0.46667,-0.27999 -0.76,-0.28 l -0.84,0 c -0.34667,10e-6 -0.62667,0.10668 -0.84,0.32 -0.21334,0.21334 -0.38667,0.44001 -0.52,0.68 -0.10667,0.21334 -0.18667,0.40001 -0.24,0.56 -0.0267,0.16001 -0.0267,0.20001 0,0.12 -0.0533,10e-6 -0.08,0.0533 -0.08,0.16 0,0.10667 0,0.18667 0,0.24 0,0.50667 0.08,0.89334 0.24,1.16 0.18666,0.24001 0.4,0.44001 0.64,0.6 0.24,0.13334 0.49333,0.25334 0.76,0.36 0.29333,0.08 0.54666,0.21334 0.76,0.4 l 0,0.84 c -0.0267,0.0533 -0.10667,0.13334 -0.24,0.24 -0.13334,0.08 -0.22667,0.14667 -0.28,0.2 l -0.44,0 c -0.21334,0 -0.41334,-0.08 -0.6,-0.24 -0.16,-0.16 -0.36,-0.24 -0.6,-0.24 l 0.36,0.48 c 0.0533,0.0267 0.16,0.0933 0.32,0.2 0.18666,0.10667 0.30666,0.17334 0.36,0.2 l 0.6,0 c 0.26666,-0.10666 0.49333,-0.17333 0.68,-0.2 0.21333,-0.0533 0.43999,-0.32 0.68,-0.8 l 0.12,-0.24 c 0.0533,-0.0533 0.0933,-0.15999 0.12,-0.32 0.0533,-0.15999 0.08,-0.23999 0.08,-0.24 -10e-6,-0.21333 -0.04,-0.43999 -0.12,-0.68 -0.08,-0.23999 -0.14667,-0.38666 -0.2,-0.44 l -1.24,-1.4 0,-0.84 c 0,-0.0267 0.04,-0.0667 0.12,-0.12 0.08,-0.08 0.13333,-0.13332 0.16,-0.16 l 0.56,0 c 0.0267,1e-5 0.0933,0.0267 0.2,0.08 0.10666,0.0267 0.17333,0.04 0.2,0.04 l 0.44,0.4 c 0.08,0.16001 0.17333,0.38668 0.28,0.68 0.13333,0.26667 0.23999,0.49334 0.32,0.68 0.08,0.18667 0.11999,0.29334 0.12,0.32 l 0,0.8 m 5.52,-10.32 0,-0.08 c 0.08,2e-5 0.19999,-0.04 0.36,-0.12 0.18665,-0.10665 0.30665,-0.15998 0.36,-0.16 l 1.12,0 c -10e-6,0.0267 0.10665,0.08 0.32,0.16 0.21332,0.0534 0.38665,0.0933 0.52,0.12 l 0.56,0.44 0,0.12 c -0.0534,0.0267 -0.10668,0.0667 -0.16,0.12 -0.0533,0.0267 -0.10668,0.04 -0.16,0.04 l -1.24,0 c -0.0534,2e-5 -0.21335,-0.04 -0.48,-0.12 -0.26668,-0.08 -0.50668,-0.14665 -0.72,-0.2 -0.18668,-0.0533 -0.29335,-0.08 -0.32,-0.08 l -0.16,-0.2 0,-0.04 m -5.28,-3.24 c -0.26667,-0.39998 -0.46667,-0.70665 -0.6,-0.92 -0.10667,-0.23998 -0.18667,-0.43998 -0.24,-0.6 -0.0533,-0.15998 -0.0933,-0.30665 -0.12,-0.44 -0.0267,-0.15998 -0.0667,-0.34664 -0.12,-0.56 l -0.2,-1.2 0,-0.6 c -1e-5,-0.53331 0.08,-0.99997 0.24,-1.4 0.18666,-0.39997 0.39999,-0.75997 0.64,-1.08 0.26666,-0.31997 0.54666,-0.61331 0.84,-0.88 0.31999,-0.26664 0.62666,-0.54664 0.92,-0.84 l 0.84,-0.44 c 0.39999,3e-5 0.75999,-0.08 1.08,-0.24 0.31999,-0.18664 0.66666,-0.27997 1.04,-0.28 0.37332,-0.1333 0.81332,-0.2133 1.32,-0.24 0.50665,-0.0533 0.90665,-0.08 1.2,-0.08 l 0.52,0 c 0.74665,0.1867 1.30665,0.33336 1.68,0.44 0.39998,0.1067 0.71998,0.20003 0.96,0.28 0.23998,0.08 0.45332,0.16003 0.64,0.24 0.18665,0.08 0.45332,0.1867 0.8,0.32 0.18665,0.18669 0.37331,0.36003 0.56,0.52 0.21331,0.16003 0.42665,0.34669 0.64,0.56 0.23998,0.21336 0.47998,0.46669 0.72,0.76 0.26665,0.29336 0.54665,0.65336 0.84,1.08 l 0.12,0.24 c 0.10665,0.18669 0.19998,0.40002 0.28,0.64 0.10665,0.24002 0.15998,0.41336 0.16,0.52 l 0,3.04 c -2e-5,0.24002 -0.0667,0.46669 -0.2,0.68 -0.13335,0.21335 -0.29335,0.41335 -0.48,0.6 l -0.28,0 c -0.13335,2e-5 -0.33335,-0.04 -0.6,-0.12 -0.24002,-0.10665 -0.50669,-0.21331 -0.8,-0.32 -0.29335,-0.13331 -0.60002,-0.25331 -0.92,-0.36 -0.29335,-0.10665 -0.54668,-0.15998 -0.76,-0.16 l -1.96,0 c -0.69335,2e-5 -1.28001,0.10669 -1.76,0.32 -0.45335,0.18669 -0.85335,0.42669 -1.2,0.72 -0.34668,0.26669 -0.65335,0.54669 -0.92,0.84 -0.26668,0.29335 -0.53334,0.54668 -0.8,0.76 -0.0533,2e-5 -0.12001,-0.0533 -0.2,-0.16 -0.0533,-0.13332 -0.10668,-0.27998 -0.16,-0.44 -0.0533,-0.15998 -0.10668,-0.31998 -0.16,-0.48 -0.0267,-0.15998 -0.0533,-0.26665 -0.08,-0.32 l 0,-1.12 c -10e-6,-0.39998 0.13332,-0.66665 0.4,-0.8 0.29332,-0.13331 0.53332,-0.29331 0.72,-0.48 l 0.44,0 c 0.0267,2e-5 0.15999,0.0267 0.4,0.08 0.23999,0.0267 0.38665,0.04 0.44,0.04 l 0.12,0 c 0.08,0.10669 0.25332,0.18669 0.52,0.24 0.26665,0.0534 0.46665,0.08 0.6,0.08 l 1.08,0 c 0.53332,-0.15998 0.99998,-0.34664 1.4,-0.56 0.42665,-0.21331 0.66665,-0.34664 0.72,-0.4 l 0.12,-0.12 c 0.23998,-0.37331 0.37332,-0.65331 0.4,-0.84 0.0267,-0.18664 0.0933,-0.38664 0.2,-0.6 l 0,-0.68 c -0.08,-0.10664 -0.16002,-0.27998 -0.24,-0.52 -0.08,-0.26664 -0.20002,-0.51997 -0.36,-0.76 -0.16002,-0.23997 -0.37335,-0.45331 -0.64,-0.64 -0.24002,-0.18664 -0.58668,-0.27997 -1.04,-0.28 l -0.12,0 c -0.13335,3e-5 -0.29335,0.0134 -0.48,0.04 -0.16001,3e-5 -0.26668,3e-5 -0.32,0 l -0.04,0.08 c -0.0267,3e-5 0.04,0.04 0.2,0.12 0.15999,0.0534 0.31998,0.12003 0.48,0.2 0.18665,0.0534 0.34665,0.10669 0.48,0.16 0.13332,0.0534 0.15998,0.0667 0.08,0.04 0.13332,0.10669 0.27998,0.25336 0.44,0.44 0.18665,0.16003 0.27998,0.25336 0.28,0.28 l 0,0.24 -0.84,0.84 c -2e-5,2e-5 -0.0533,0.0134 -0.16,0.04 -0.08,0.0267 -0.14668,0.04 -0.2,0.04 -0.37335,2e-5 -0.73335,-0.0933 -1.08,-0.28 -0.32001,-0.18664 -0.57335,-0.29331 -0.76,-0.32 l -0.72,0 c -0.72001,2e-5 -1.29334,0.16002 -1.72,0.48 -0.42668,0.32002 -0.76001,0.66669 -1,1.04 -0.21334,0.34669 -0.34668,0.65336 -0.4,0.92 -0.0267,0.26669 -0.0133,0.33336 0.04,0.2 -0.08,0.21336 -0.13334,0.44002 -0.16,0.68 -1e-5,0.24002 -1e-5,0.54669 0,0.92 -1e-5,0.53335 0.0267,0.97335 0.08,1.32 0.0533,0.34669 0.13332,0.64002 0.24,0.88 0.10666,0.21335 0.21332,0.40002 0.32,0.56 0.10666,0.16002 0.22666,0.32002 0.36,0.48 l 0,0.32 c -1e-5,0.0533 -0.0267,0.13335 -0.08,0.24 -0.0267,0.08 -0.04,0.13335 -0.04,0.16 l -0.36,0.32 -0.04,0 c -0.40001,-0.39998 -0.89334,-0.94665 -1.48,-1.64 -0.56001,-0.69331 -1.14667,-1.30665 -1.76,-1.84" />
        <path
           inkscape:connector-curvature="0"
           id="path3085"
           d="m 280.19437,287.46504 1.12,1.16 c 0.0267,0 0.0933,0.0533 0.2,0.16 0.13333,0.08 0.26666,0.17333 0.4,0.28 0.15999,0.08 0.30666,0.17333 0.44,0.28 0.15999,0.08 0.27999,0.12 0.36001,0.12 0.08,0 0.21332,0.0133 0.39999,0.04 0.21333,0.0533 0.42666,0.10666 0.64,0.16 0.23999,0.0533 0.46666,0.0933 0.68,0.12 0.21332,0.0533 0.37332,0.08 0.48,0.08 l 1.56,0 c 0.85332,0 1.53332,-0.12 2.04,-0.36 0.50665,-0.24 0.89332,-0.48 1.16,-0.72 0.26665,-0.26667 0.45332,-0.48 0.56,-0.64 0.10665,-0.18667 0.19998,-0.21334 0.28,-0.08 0.26665,-0.34667 0.47998,-0.61334 0.64001,-0.8 0.18664,-0.21334 0.34664,-0.45334 0.47999,-0.72 0.15998,-0.26667 0.29332,-0.61333 0.4,-1.04 0.13332,-0.42667 0.27998,-1.06667 0.44,-1.92 l 0,-0.44 c -2e-5,0 -0.0267,-0.0133 -0.08,-0.04 -0.0267,-0.0533 -0.0534,-0.08 -0.08,-0.08 l -0.23999,0 c -0.53336,1.01333 -0.93336,1.69333 -1.20001,2.04 -0.24002,0.32 -0.40002,0.52 -0.47999,0.6 -0.37336,0.24 -0.70669,0.4 -1,0.48 -0.29336,0.08 -0.60002,0.12 -0.92001,0.12 -0.42668,0 -0.84001,-0.0667 -1.24,-0.2 -0.37334,-0.16 -0.72001,-0.33333 -1.04,-0.52 l -1.16,-1.12 c -0.08,-0.08 -0.17334,-0.22667 -0.28,-0.44 -0.10668,-0.24 -0.21334,-0.48 -0.32,-0.72 -0.10668,-0.24 -0.21334,-0.46666 -0.32,-0.68 -0.10668,-0.24 -0.21334,-0.41333 -0.32,-0.52 l 0,-0.28 c 0.21332,-0.21333 0.47999,-0.49333 0.80001,-0.84 0.31998,-0.37333 0.66665,-0.56 1.03999,-0.56 0.0533,-0.0267 0.14666,-0.0533 0.28,-0.08 0.13332,-0.0267 0.22666,-0.0533 0.28,-0.08 l 0.96001,0 c 0.0533,0.0267 0.18664,0.0667 0.39999,0.12 0.21332,0.0533 0.42665,0.13334 0.64,0.24 0.23999,0.10667 0.45332,0.25334 0.64001,0.44 0.18664,0.16 0.27998,0.37334 0.27999,0.64 l 0,0.96 c -1e-5,0.08 -0.0534,0.17334 -0.15999,0.28 -0.08,0.08 -0.16002,0.12 -0.24,0.12 l -0.12,0 c -0.0534,-0.0267 -0.12002,-0.0933 -0.2,-0.2 -0.08,-0.10666 -0.12002,-0.17333 -0.12,-0.2 l -0.12,-0.12 c -0.0534,-0.0533 -0.16002,-0.0933 -0.32,-0.12 -0.13336,-0.0533 -0.22669,-0.08 -0.28001,-0.08 -0.13335,0.13334 -0.33335,0.24 -0.59999,0.32 -0.24002,0.0533 -0.36002,0.22667 -0.36,0.52 l 0,0.44 c -2e-5,0.18667 0.0533,0.34667 0.15999,0.48 0.13332,0.13333 0.26665,0.25333 0.40001,0.36 0.15998,0.08 0.30664,0.14667 0.44,0.2 0.13331,0.0533 0.22664,0.08 0.27999,0.08 l 0.12,0 c 0.21332,-0.08 0.45332,-0.14667 0.72001,-0.2 0.26664,-0.0533 0.50664,-0.14667 0.71999,-0.28 0.23999,-0.16 0.43999,-0.36 0.6,-0.6 0.15999,-0.24 0.23998,-0.57333 0.24001,-1 -3e-5,-0.32 -0.0267,-0.57333 -0.08,-0.76 -0.0267,-0.21333 -0.0933,-0.4 -0.2,-0.56 -0.10668,-0.16 -0.26668,-0.33333 -0.48,-0.52 -0.21335,-0.21333 -0.48001,-0.48 -0.79999,-0.8 -0.21336,-0.13333 -0.38669,-0.22666 -0.52001,-0.28 -0.13335,-0.0533 -0.26668,-0.0933 -0.4,-0.12 -0.10668,-0.0267 -0.22668,-0.04 -0.36,-0.04 -0.13335,-0.0267 -0.30668,-0.08 -0.52,-0.16 l -0.72,0 c -0.18668,0.08 -0.50668,0.17334 -0.96,0.28 -0.45334,0.10667 -0.88001,0.34667 -1.27999,0.72 -0.0534,0.0533 -0.17335,0.17334 -0.36,0.36 -0.18668,0.16 -0.30668,0.26667 -0.36001,0.32 l -0.27999,0 c -0.29335,-0.29333 -0.60002,-0.54666 -0.92001,-0.76 -0.32001,-0.21333 -0.57334,-0.46666 -0.75999,-0.76 -2e-5,-0.13333 0.17332,-0.25333 0.51999,-0.36 0.37333,-0.10666 1.03999,-0.43999 2,-1 l 1,-1.04 c -10e-6,-0.10666 0.0533,-0.25333 0.16001,-0.44 0.10665,-0.21332 0.22665,-0.43999 0.35999,-0.68 0.15999,-0.26666 0.29332,-0.51999 0.40001,-0.76 0.10665,-0.23999 0.15998,-0.45332 0.15999,-0.64 l 0,-2.76 c 0.0533,10e-6 0.10666,0.04 0.16,0.12 0.0533,0.08 0.10666,0.12001 0.16,0.12 l 0,0.32 c -1e-5,0.40001 0.11999,0.69335 0.36,0.88 0.23999,0.18668 0.47999,0.32001 0.72001,0.4 0.26664,0.0533 0.47998,0.08 0.63999,0.08 0.15999,1e-5 0.14665,1e-5 -0.04,0 -10e-6,1e-5 0.0666,0.0133 0.2,0.04 0.15999,0.0267 0.26665,0.04 0.32001,0.04 0.66664,10e-6 1.18664,-0.13332 1.56,-0.4 0.39997,-0.29332 0.70664,-0.62665 0.91999,-1 0.23998,-0.39999 0.39998,-0.79999 0.48,-1.2 0.10665,-0.42665 0.19998,-0.78665 0.28,-1.08 l 0,-1.24 -0.16,-0.32 -0.12,-0.12 c -0.0534,2e-5 -0.10668,2e-5 -0.16,0 -0.0267,-0.0267 -0.0533,-0.04 -0.08,-0.04 -2e-5,0.50668 -0.0267,0.94668 -0.08,1.32 -0.0534,0.34668 -0.18668,0.52001 -0.4,0.52 l -0.56,0 c -0.18668,10e-6 -0.34668,-0.08 -0.47999,-0.24 -0.10669,-0.18665 -0.22669,-0.39998 -0.36001,-0.64 -0.10668,-0.23998 -0.22668,-0.46665 -0.36,-0.68 -0.13335,-0.23998 -0.29335,-0.41332 -0.47999,-0.52 -0.13336,2e-5 -0.29336,-0.0666 -0.48001,-0.2 -0.18668,-0.15998 -0.34668,-0.23998 -0.48,-0.24 l -0.83999,0 c -0.0267,0.0534 -0.12002,0.10668 -0.28001,0.16 -0.13334,0.0533 -0.21334,0.10668 -0.24,0.16 l -0.72,0.72 c -0.0533,2e-5 -0.10668,0.08 -0.16,0.24 -0.0533,0.16002 -0.10668,0.25335 -0.16,0.28 l -0.24,0 c -0.0267,2e-5 -0.20001,-0.14665 -0.51999,-0.44 -0.32002,-0.31998 -0.68002,-0.66665 -1.08001,-1.04 -0.37334,-0.37332 -0.74667,-0.73332 -1.12,-1.08 -0.34667,-0.37331 -0.56001,-0.59998 -0.64,-0.68 -0.0533,-0.0266 -0.16001,-0.10665 -0.32,-0.24 -0.16001,-0.13331 -0.33334,-0.26665 -0.51999,-0.4 -0.18668,-0.15998 -0.36001,-0.30665 -0.52001,-0.44 -0.16,-0.13331 -0.26667,-0.22665 -0.32,-0.28 l -0.12,-0.12 c -0.32,-0.34665 -0.62667,-0.73331 -0.91999,-1.16 -0.26668,-0.45331 -0.40001,-1.13331 -0.40001,-2.04 0,-0.37331 0.0267,-0.71998 0.08,-1.04 0.0533,-0.31998 0.22665,-0.62664 0.51999,-0.92 0.18666,-0.29331 0.42666,-0.57331 0.72,-0.84 0.32,-0.29331 0.78666,-0.43997 1.4,-0.44 l 1.24001,0 0.12,0.12 c 0.34665,0.72003 0.59998,1.25336 0.76,1.6 0.18665,0.32002 0.33332,0.54669 0.44,0.68 0.10665,0.13336 0.19998,0.22669 0.27999,0.28 0.10666,0.0267 0.27999,0.12002 0.52001,0.28 l 0.83999,0.4 c 0.29332,2e-5 0.54666,0.0667 0.76,0.2 0.21332,0.10669 0.37332,0.24002 0.48,0.4 0.13332,0.16002 0.22666,0.30669 0.28,0.44 0.08,0.13336 0.13332,0.21336 0.16,0.24 l 0,0.64 -0.84,0.72 -0.32,0 c -0.13334,2e-5 -0.28001,-0.0267 -0.44,-0.08 -0.13334,-0.08 -0.22668,-0.14665 -0.28,-0.2 l -0.12,-0.12 c -0.0267,2e-5 -0.0933,-0.0133 -0.19999,-0.04 -0.10669,-0.0267 -0.17335,-0.04 -0.20001,-0.04 -10e-6,0.18669 0.0667,0.37335 0.20001,0.56 0.13331,0.16002 0.29331,0.30669 0.47999,0.44 0.21332,0.13335 0.42666,0.24002 0.64001,0.32 0.23998,0.08 0.45331,0.12002 0.63999,0.12 l 0.44,0 c 0.61332,2e-5 1.05332,-0.0666 1.32,-0.2 0.29332,-0.13331 0.58665,-0.34665 0.88,-0.64 l 0.84001,-0.84 c 0.10664,-0.08 0.22664,-0.26664 0.35999,-0.56 0.13332,-0.29331 0.19998,-0.55998 0.2,-0.8 l 0,-0.56 c -2e-5,-0.77331 -0.0933,-1.35998 -0.28,-1.76 -0.16001,-0.39997 -0.37335,-0.70664 -0.63999,-0.92 -0.24002,-0.23997 -0.52002,-0.43997 -0.84001,-0.6 -0.32001,-0.15997 -0.61335,-0.38664 -0.88,-0.68 -0.0534,3e-5 -0.13335,-0.04 -0.24,-0.12 -0.08,-0.08 -0.14668,-0.11997 -0.2,-0.12 l -0.4,-0.4 c -1e-5,3e-5 -0.0134,-0.0666 -0.04,-0.2 -0.0267,-0.13331 -0.04,-0.22664 -0.04,-0.28 -2e-5,-0.18664 0.0266,-0.34664 0.08,-0.48 0.0533,-0.1333 0.14665,-0.19997 0.28,-0.2 l 1.52001,-0.12 0,-0.12 c -2e-5,-0.18664 -0.10669,-0.2933 -0.32001,-0.32 -0.18668,-0.0533 -0.30668,-0.08 -0.35999,-0.08 l -2.08001,0 c -0.34668,3e-5 -0.70668,0.0534 -1.08,0.16 -0.37334,0.1067 -0.77334,0.33336 -1.2,0.68 l -0.12,0.12 c -0.24001,0.24003 -0.45334,0.4267 -0.64,0.56 -0.18667,0.13336 -0.36001,0.36003 -0.52,0.68 -0.0533,3e-5 -0.17334,3e-5 -0.35999,0 -0.16002,-0.0266 -0.33335,-0.04 -0.52001,-0.04 -0.45334,3e-5 -0.96001,0.0667 -1.52,0.2 -0.53334,0.10669 -1.08,0.29336 -1.64,0.56 -0.53334,0.24003 -1.04,0.56003 -1.51999,0.96 -0.45334,0.40003 -0.81334,0.86669 -1.08001,1.4 -0.37333,0.37336 -0.65333,0.72002 -0.84,1.04 -0.16,0.29336 -0.26667,0.56002 -0.31999,0.8 -0.0533,0.24002 -0.08,0.45336 -0.08,0.64 0,0.16002 -0.0133,0.30669 -0.04,0.44 -0.08,0.29335 -0.13334,0.53335 -0.16001,0.72 0,0.16002 0,0.42669 0,0.8 0,1.01335 0.16,1.90668 0.48,2.68 0.32,0.77335 0.66667,1.42668 1.04001,1.96 0.39999,0.50668 0.75999,0.89335 1.07999,1.16 0.32,0.24001 0.49333,0.36001 0.52,0.36 0.32,0.34668 0.6,0.57335 0.84001,0.68 0.26665,0.10668 0.54665,0.30668 0.83999,0.6 l 0.24,0.24 c 1.01333,0.50668 1.77333,1.06668 2.28,1.68 0.50666,0.61334 0.75999,1.26668 0.76,1.96 -10e-6,0.40001 -0.08,0.73334 -0.23999,1 -0.13335,0.24001 -0.26668,0.50667 -0.40001,0.8 l -0.44,0.44 c -0.08,0.08 -0.28001,0.17334 -0.59999,0.28 -0.29335,0.08 -0.50668,0.12001 -0.64001,0.12 l -0.12,0 c -0.4,10e-6 -0.78667,-0.0667 -1.16,-0.2 -0.37334,-0.13333 -0.65334,-0.19999 -0.84,-0.2 l -0.72,0 c -0.56,0.18667 -1.04,0.30667 -1.44,0.36 -0.37333,0.0533 -0.73333,0.10667 -1.07999,0.16 -0.32001,0.0533 -0.64001,0.16001 -0.96001,0.32 -0.29333,0.13334 -0.61333,0.37334 -0.96,0.72 -0.21333,0 -0.42666,0.12 -0.63999,0.36 -0.21334,0.24 -0.41334,0.52 -0.60001,0.84 -0.18666,0.32 -0.34666,0.64 -0.48,0.96 -0.13333,0.29334 -0.21333,0.49334 -0.23999,0.6 -1e-5,0.08 -0.0267,0.21334 -0.08,0.4 -0.0267,0.16 -0.04,0.26667 -0.04,0.32 l 0,2.08 c -1e-5,0.72 0.21333,1.33333 0.63999,1.84 0.42667,0.50666 0.88,0.92 1.36001,1.24 0.50666,0.32 0.94666,0.56 1.32,0.72 0.37332,0.13333 0.51999,0.17333 0.44,0.12 0.21332,0.08 0.42666,0.12 0.63999,0.12 0.21333,0.0267 0.46667,0.04 0.76,0.04 0.24,0 0.48,-0.0133 0.72001,-0.04 0.26665,0 0.43999,-0.04 0.51999,-0.12 l 0.12,-0.12 c 0.18666,-0.18667 0.37333,-0.32 0.56,-0.4 0.21333,-0.08 0.42666,-0.16 0.64,-0.24 0.24,-0.10667 0.48,-0.24 0.72001,-0.4 0.26665,-0.18667 0.53332,-0.46667 0.79999,-0.84 l 0.12,0 m -8,-1.84 0,-0.36 c 0.18667,-0.58667 0.38667,-1.02667 0.6,-1.32 0.24,-0.32 0.66667,-0.62667 1.28,-0.92 l 1.92,0 c 0.42667,0 0.84,0.16 1.24,0.48 0.42666,0.32 0.8,0.68 1.12,1.08 0.34666,0.4 0.61333,0.78667 0.80001,1.16 0.21332,0.37333 0.31999,0.62667 0.31999,0.76 0,0 0,0.04 0,0.12 0.0267,0.08 0.04,0.14666 0.04,0.2 0,0.21333 -0.12,0.41333 -0.35999,0.6 -0.21335,0.18666 -0.46668,0.34666 -0.76,0.48 -0.26668,0.13333 -0.52001,0.25333 -0.76001,0.36 -0.24,0.10666 -0.37334,0.18666 -0.4,0.24 -0.0533,0 -0.17334,0.0267 -0.36,0.08 -0.18667,0.0267 -0.30667,0.04 -0.36,0.04 l -1.67999,0 c -1e-5,0 -0.0533,-0.0133 -0.16001,-0.04 -0.08,-0.0533 -0.14667,-0.08 -0.2,-0.08 l -0.84,-0.44 c -0.32,-0.21334 -0.64,-0.53334 -0.96,-0.96 -0.32,-0.42667 -0.48,-0.8 -0.48,-1.12 l 0,-0.36" />
      </g>
    </g>
  </g>
</svg>
